<svg width="10" height="21" viewBox="0 0 10 21" fill="none" xmlns="http://www.w3.org/2000/svg">
<path d="M7.68407 9.71566C6.92674 9.28194 6.12157 8.95148 5.32438 8.60864C4.86201 8.41037 4.41956 8.17905 4.02894 7.85686C3.25965 7.22074 3.40713 6.18807 4.30796 5.77913C4.56306 5.66348 4.83012 5.6263 5.10116 5.60978C6.14549 5.55195 7.13799 5.75022 8.08267 6.22112C8.55301 6.45656 8.70847 6.38221 8.86791 5.87414C9.03532 5.33715 9.17483 4.79191 9.33028 4.25079C9.43391 3.88729 9.30636 3.64771 8.97553 3.49488C8.36966 3.21812 7.74785 3.01985 7.09415 2.91245C6.24115 2.77614 6.24115 2.77201 6.23717 1.88392C6.23318 0.632329 6.23318 0.632329 5.02145 0.632329C4.84606 0.632329 4.67068 0.628198 4.4953 0.632329C3.92929 0.648852 3.83363 0.752118 3.81768 1.3428C3.80971 1.60717 3.81768 1.87153 3.8137 2.14002C3.80971 2.92485 3.80572 2.91245 3.08028 3.18508C1.32645 3.84598 0.242268 5.08518 0.126675 7.0679C0.0230395 8.82343 0.907925 10.0089 2.29903 10.8722C3.15601 11.4051 4.10467 11.719 5.01347 12.1362C5.36822 12.2973 5.70703 12.4832 6.00199 12.7393C6.87492 13.487 6.71548 14.7303 5.67913 15.2012C5.12508 15.4531 4.53914 15.5151 3.93726 15.4366C3.00853 15.3168 2.11966 15.0649 1.28261 14.6146C0.792332 14.3503 0.648836 14.4205 0.481426 14.9699C0.337931 15.4449 0.21038 15.924 0.0828291 16.4032C-0.0885676 17.0476 -0.0247925 17.2004 0.569117 17.502C1.32645 17.882 2.1356 18.0761 2.9607 18.2124C3.60643 18.3198 3.62636 18.3487 3.63433 19.0427C3.63831 19.3566 3.63831 19.6747 3.6423 19.9886C3.64629 20.3852 3.82964 20.6165 4.22425 20.6247C4.67068 20.633 5.12109 20.633 5.56752 20.6206C5.93423 20.6123 6.12157 20.4058 6.12157 20.0217C6.12157 19.5921 6.1415 19.1584 6.12556 18.7288C6.10563 18.2909 6.28898 18.0679 6.69555 17.9522C7.63226 17.6878 8.42945 17.1674 9.04329 16.3908C10.7493 14.2429 10.0996 11.0994 7.68407 9.71566Z" fill="#00ACF6"/>
</svg>
