<svg width="12" height="22" viewBox="0 0 12 22" fill="none" xmlns="http://www.w3.org/2000/svg">
<path d="M8.75931 9.99368C7.896 9.51658 6.97817 9.15309 6.06942 8.77596C5.54235 8.55786 5.038 8.30341 4.59271 7.949C3.71577 7.24926 3.88389 6.11333 4.91077 5.6635C5.20157 5.53628 5.506 5.49539 5.81498 5.47721C7.00543 5.4136 8.13682 5.6317 9.21368 6.14968C9.74984 6.40867 9.92705 6.32689 10.1088 5.76801C10.2996 5.17732 10.4587 4.57755 10.6359 3.98232C10.754 3.58248 10.6086 3.31894 10.2315 3.15082C9.54083 2.84639 8.83201 2.62829 8.08684 2.51016C7.11448 2.36021 7.11448 2.35567 7.10994 1.37877C7.10539 0.00201952 7.10539 0.00201943 5.7241 0.00201943C5.52418 0.00201943 5.32425 -0.00252429 5.12433 0.00201943C4.47912 0.0201943 4.37007 0.133787 4.35189 0.78354C4.34281 1.07434 4.35189 1.36514 4.34735 1.66048C4.34281 2.52379 4.33826 2.51016 3.5113 2.81004C1.51206 3.53704 0.276169 4.90016 0.1444 7.08115C0.0262635 9.01223 1.03497 10.3163 2.62073 11.2659C3.59763 11.8521 4.67904 12.1974 5.71501 12.6563C6.1194 12.8335 6.50562 13.038 6.84186 13.3197C7.83693 14.1421 7.65519 15.5098 6.47382 16.0277C5.84224 16.3049 5.17431 16.3731 4.48821 16.2867C3.42952 16.155 2.41627 15.8778 1.46208 15.3825C0.903203 15.0917 0.739629 15.169 0.548792 15.7733C0.385218 16.2958 0.239819 16.8229 0.0944195 17.35C-0.100961 18.0588 -0.0282617 18.2269 0.648754 18.5586C1.51206 18.9766 2.43444 19.1902 3.37499 19.3401C4.11108 19.4583 4.13379 19.4901 4.14288 20.2534C4.14743 20.5987 4.14743 20.9486 4.15197 21.2939C4.15651 21.7301 4.36553 21.9846 4.81535 21.9937C5.32425 22.0027 5.83769 22.0027 6.34659 21.9891C6.76461 21.98 6.97817 21.7528 6.97817 21.3303C6.97817 20.8577 7.00089 20.3806 6.98271 19.9081C6.95999 19.4265 7.16901 19.1811 7.63247 19.0539C8.70024 18.7631 9.60899 18.1906 10.3087 17.3363C12.2534 14.9736 11.5128 11.5158 8.75931 9.99368Z" fill="#00ACF6"/>
</svg>
