<svg width="21" height="22" viewBox="0 0 21 22" fill="none" xmlns="http://www.w3.org/2000/svg">
<path d="M13.639 12.5298H12.7048V13.827H13.639V12.5298Z" fill="#FA8A00"/>
<path d="M2.66695 12.5298H1.73279V13.827H2.66695V12.5298Z" fill="#FA8A00"/>
<path d="M7.68607 16.989C10.9731 16.989 13.6378 15.5733 13.6378 13.8269C13.6378 12.0804 10.9731 10.6647 7.68607 10.6647C4.39901 10.6647 1.73431 12.0804 1.73431 13.8269C1.73431 15.5733 4.39901 16.989 7.68607 16.989Z" fill="#FA8A00"/>
<path d="M7.68607 15.6919C10.9731 15.6919 13.6378 14.2762 13.6378 12.5297C13.6378 10.7833 10.9731 9.36755 7.68607 9.36755C4.39901 9.36755 1.73431 10.7833 1.73431 12.5297C1.73431 14.2762 4.39901 15.6919 7.68607 15.6919Z" fill="#FFCA00"/>
<path d="M7.68606 14.7508C10.343 14.7508 12.4968 13.7565 12.4968 12.5298C12.4968 11.3032 10.343 10.3088 7.68606 10.3088C5.02915 10.3088 2.87531 11.3032 2.87531 12.5298C2.87531 13.7565 5.02915 14.7508 7.68606 14.7508Z" fill="#FA8A00"/>
<path d="M7.68558 14.7503C10.3428 14.7503 12.4969 13.783 12.4969 12.5898C12.4969 11.3966 10.3428 10.4293 7.68558 10.4293C5.02837 10.4293 2.87427 11.3966 2.87427 12.5898C2.87427 13.783 5.02837 14.7503 7.68558 14.7503Z" fill="#FFE700"/>
<path d="M7.68614 14.5878C10.3437 14.5878 12.498 13.6569 12.498 12.5085C12.498 11.3602 10.3437 10.4293 7.68614 10.4293C5.02862 10.4293 2.87427 11.3602 2.87427 12.5085C2.87427 13.6569 5.02862 14.5878 7.68614 14.5878Z" fill="#FF9F00"/>
<path d="M7.28421 12.1606C6.576 12.5276 6.35735 12.5734 6.18705 12.5287C6.02742 12.4867 5.95323 12.3395 6.26012 12.0652C6.49193 11.8634 6.75821 11.7023 7.04701 11.5892L7.27577 11.4943L6.7019 11.082L6.48551 11.1671C6.19263 11.2816 5.91639 11.4326 5.66376 11.6164L5.0393 11.4583L4.37775 12.0036L5.06234 12.1824C4.69475 12.6781 4.83752 13.1067 5.46535 13.2796C6.27361 13.501 7.11784 13.1269 7.87776 12.7054C8.51908 12.3564 8.77201 12.3526 8.93669 12.394C9.19581 12.4595 9.2003 12.6907 8.94119 12.9606C8.67425 13.2246 8.35495 13.4335 8.00253 13.5746L7.7215 13.6896L8.41509 14.206L8.63992 14.115C9.02641 13.9501 9.38066 13.7217 9.68705 13.4399L10.4397 13.6373L10.9939 13.002L10.207 12.803C10.4976 12.2152 10.1013 11.834 9.55778 11.702C8.71186 11.4965 7.90867 11.834 7.28421 12.1606Z" fill="#FFCA00"/>
<g style="mix-blend-mode:soft-light">
<g style="mix-blend-mode:soft-light">
<path d="M10.2097 12.8033C10.4205 12.3774 10.2659 12.0617 9.9624 11.8687L9.12604 12.6479C9.09724 12.7681 9.03275 12.8775 8.94056 12.9625C8.74159 13.1618 8.51104 13.329 8.25764 13.4576L7.88049 13.8088L8.41671 14.2085L8.64154 14.1175C8.80489 14.049 8.96206 13.9675 9.11143 13.8737L10.2502 12.8115L10.2097 12.8033Z" fill="white"/>
</g>
<g style="mix-blend-mode:soft-light">
<path d="M7.28395 12.1608C6.76628 12.4286 6.51167 12.5245 6.34473 12.5398L5.53479 13.2945C6.32169 13.4766 7.13894 13.1167 7.87694 12.7072C8.04969 12.6102 8.23012 12.5267 8.41652 12.4575L9.27761 11.6553C8.53455 11.5746 7.83871 11.8707 7.28395 12.1608Z" fill="white"/>
</g>
<g style="mix-blend-mode:soft-light">
<path d="M6.26006 12.0653C6.40167 11.9392 6.55784 11.8294 6.72545 11.7381L7.11384 11.3766L6.70128 11.08L6.58887 11.123L4.86725 12.7322C4.88242 12.91 4.99203 13.0594 5.19269 13.1684L6.05209 12.3669C6.05827 12.2938 6.11617 12.194 6.26006 12.0653Z" fill="white"/>
</g>
</g>
<g style="mix-blend-mode:soft-light">
<g style="mix-blend-mode:soft-light">
<path d="M8.24263 10.326L9.1633 9.46773C8.92442 9.43501 8.68498 9.4132 8.4461 9.39575L7.46472 10.3108C7.72159 10.3053 7.98183 10.3119 8.24263 10.326Z" fill="white"/>
</g>
<g style="mix-blend-mode:soft-light">
<path d="M8.18751 14.7365C7.75911 14.7576 7.32974 14.7522 6.90206 14.7201L6.00275 15.5593C6.05165 15.5669 6.09774 15.5768 6.1472 15.5838C6.32144 15.6089 6.49681 15.6275 6.67161 15.6438C6.84641 15.6602 7.00885 15.6695 7.17747 15.6771H7.18085L8.18751 14.7365Z" fill="white"/>
</g>
<g style="mix-blend-mode:soft-light">
<path d="M4.22662 14.0697C4.05472 13.9884 3.88906 13.8953 3.73087 13.791L3.00018 14.4732C3.15533 14.5787 3.31632 14.6759 3.48244 14.7644L4.22662 14.0697Z" fill="white"/>
</g>
<g style="mix-blend-mode:soft-light">
<path d="M5.24778 15.4105L6.09088 14.6226C5.56287 14.5413 5.04578 14.4034 4.54912 14.2114L3.79089 14.9176C4.25812 15.1292 4.74624 15.2944 5.24778 15.4105Z" fill="white"/>
</g>
<g style="mix-blend-mode:soft-light">
<path d="M10.9867 10.9135C11.2734 11.036 11.544 11.1912 11.7927 11.3759L12.5279 10.6905C12.4084 10.6018 12.2844 10.519 12.1564 10.4424C12.0248 10.3633 11.8854 10.2875 11.7393 10.215L10.9867 10.9135Z" fill="white"/>
</g>
<g style="mix-blend-mode:soft-light">
<path d="M8.93104 10.3844C9.40492 10.4411 9.8727 10.5383 10.3289 10.675L11.1107 9.94648C10.6113 9.76244 10.0951 9.62424 9.56899 9.53369L8.68317 10.3571C8.76579 10.3675 8.84842 10.374 8.93104 10.3844Z" fill="white"/>
</g>
</g>
<path d="M13.639 10.8628H12.7048V12.1601H13.639V10.8628Z" fill="#FA8A00"/>
<path d="M2.66695 10.8628H1.73279V12.1601H2.66695V10.8628Z" fill="#FA8A00"/>
<path d="M7.68607 15.322C10.9731 15.322 13.6378 13.9063 13.6378 12.1599C13.6378 10.4134 10.9731 8.99768 7.68607 8.99768C4.39901 8.99768 1.73431 10.4134 1.73431 12.1599C1.73431 13.9063 4.39901 15.322 7.68607 15.322Z" fill="#FA8A00"/>
<path d="M7.68607 14.0248C10.9731 14.0248 13.6378 12.609 13.6378 10.8626C13.6378 9.1162 10.9731 7.70044 7.68607 7.70044C4.39901 7.70044 1.73431 9.1162 1.73431 10.8626C1.73431 12.609 4.39901 14.0248 7.68607 14.0248Z" fill="#FFCA00"/>
<path d="M7.68606 13.0836C10.343 13.0836 12.4968 12.0892 12.4968 10.8626C12.4968 9.63598 10.343 8.6416 7.68606 8.6416C5.02915 8.6416 2.87531 9.63598 2.87531 10.8626C2.87531 12.0892 5.02915 13.0836 7.68606 13.0836Z" fill="#FA8A00"/>
<path d="M7.68558 13.0833C10.3428 13.0833 12.4969 12.116 12.4969 10.9228C12.4969 9.7296 10.3428 8.76233 7.68558 8.76233C5.02837 8.76233 2.87427 9.7296 2.87427 10.9228C2.87427 12.116 5.02837 13.0833 7.68558 13.0833Z" fill="#FFE700"/>
<path d="M7.68614 12.9208C10.3437 12.9208 12.498 11.9899 12.498 10.8415C12.498 9.69323 10.3437 8.76233 7.68614 8.76233C5.02862 8.76233 2.87427 9.69323 2.87427 10.8415C2.87427 11.9899 5.02862 12.9208 7.68614 12.9208Z" fill="#FF9F00"/>
<path d="M7.28421 10.4935C6.576 10.8605 6.35735 10.9063 6.18705 10.8616C6.02742 10.8196 5.95323 10.6724 6.26012 10.3981C6.49193 10.1963 6.75821 10.0352 7.04701 9.92204L7.27577 9.82716L6.7019 9.41492L6.48551 9.49998C6.19273 9.61468 5.91651 9.76571 5.66376 9.94931L5.0393 9.79117L4.37775 10.3365L5.06234 10.5153C4.69475 11.011 4.83752 11.4396 5.46535 11.6125C6.27361 11.8339 7.11784 11.4598 7.87775 11.0383C8.51908 10.6893 8.77201 10.6855 8.93669 10.7269C9.19581 10.7923 9.2003 11.0235 8.94119 11.2935C8.67447 11.5577 8.35536 11.7667 8.0031 11.908L7.72206 12.0231L8.41565 12.5395L8.64048 12.4484C9.02785 12.2843 9.38306 12.0565 9.69043 11.775L10.443 11.9724L10.9956 11.3349L10.2087 11.1359C10.4992 10.548 10.103 10.1669 9.55946 10.0349C8.71186 9.82934 7.90867 10.1669 7.28421 10.4935Z" fill="#FFCA00"/>
<g style="mix-blend-mode:soft-light">
<g style="mix-blend-mode:soft-light">
<path d="M10.2097 11.1358C10.4205 10.7099 10.2659 10.3942 9.9624 10.2012L9.12604 10.9804C9.09724 11.1006 9.03275 11.21 8.94056 11.295C8.74159 11.4944 8.51104 11.6615 8.25764 11.7902L7.88049 12.1413L8.41671 12.541L8.64154 12.45C8.80489 12.3816 8.96206 12.3 9.11143 12.2062L10.2485 11.1462L10.2097 11.1358Z" fill="white"/>
</g>
<g style="mix-blend-mode:soft-light">
<path d="M7.28395 10.4935C6.76628 10.7612 6.51167 10.8572 6.34473 10.8724L5.53479 11.6271C6.32169 11.8093 7.13894 11.4494 7.87694 11.0398C8.04969 10.9429 8.23012 10.8593 8.41652 10.7901L9.27761 9.98796C8.53455 9.90726 7.83871 10.2034 7.28395 10.4935Z" fill="white"/>
</g>
<g style="mix-blend-mode:soft-light">
<path d="M6.26006 10.3981C6.40164 10.2727 6.55783 10.1638 6.72545 10.0736L7.11384 9.71156L6.70128 9.41492L6.58887 9.458L4.86725 11.0661C4.88242 11.2438 4.99203 11.3933 5.19269 11.5023L6.05209 10.7007C6.05827 10.6266 6.11617 10.5268 6.26006 10.3981Z" fill="white"/>
</g>
</g>
<g style="mix-blend-mode:soft-light">
<g style="mix-blend-mode:soft-light">
<path d="M8.24263 8.65904L9.1633 7.80074C8.92442 7.76802 8.68498 7.74621 8.4461 7.72876L7.46472 8.64377C7.72159 8.63832 7.98183 8.64486 8.24263 8.65904Z" fill="white"/>
</g>
<g style="mix-blend-mode:soft-light">
<path d="M8.18751 13.0693C7.75911 13.0905 7.32974 13.0851 6.90206 13.053L6.00275 13.8922C6.05165 13.8998 6.09774 13.9096 6.1472 13.9167C6.32144 13.9418 6.49681 13.9604 6.67161 13.9767C6.84641 13.9931 7.00885 14.0023 7.17747 14.0105H7.18085L8.18751 13.0693Z" fill="white"/>
</g>
<g style="mix-blend-mode:soft-light">
<path d="M4.22662 12.4023C4.05472 12.321 3.88906 12.2279 3.73087 12.1237L3.00018 12.8058C3.15533 12.9114 3.31632 13.0086 3.48244 13.097L4.22662 12.4023Z" fill="white"/>
</g>
<g style="mix-blend-mode:soft-light">
<path d="M5.24778 13.7434L6.09088 12.9555C5.56287 12.8742 5.04578 12.7363 4.54912 12.5443L3.79089 13.2505C4.25812 13.4621 4.74624 13.6272 5.24778 13.7434Z" fill="white"/>
</g>
<g style="mix-blend-mode:soft-light">
<path d="M10.9867 9.24638C11.2734 9.36884 11.544 9.52407 11.7927 9.70879L12.5279 9.02335C12.4084 8.93466 12.2844 8.85185 12.1564 8.77524C12.0248 8.69617 11.8854 8.62038 11.7393 8.54785L10.9867 9.24638Z" fill="white"/>
</g>
<g style="mix-blend-mode:soft-light">
<path d="M8.93104 8.71761C9.40492 8.77431 9.8727 8.87158 10.3289 9.00825L11.1107 8.27973C10.6113 8.09569 10.0951 7.95749 9.56899 7.86694L8.68317 8.69307C8.76579 8.7007 8.84842 8.70725 8.93104 8.71761Z" fill="white"/>
</g>
</g>
<path d="M13.639 9.18164H12.7048V10.4789H13.639V9.18164Z" fill="#FA8A00"/>
<path d="M2.66695 9.18164H1.73279V10.4789H2.66695V9.18164Z" fill="#FA8A00"/>
<path d="M7.68607 13.6409C10.9731 13.6409 13.6378 12.2251 13.6378 10.4787C13.6378 8.73228 10.9731 7.31653 7.68607 7.31653C4.39901 7.31653 1.73431 8.73228 1.73431 10.4787C1.73431 12.2251 4.39901 13.6409 7.68607 13.6409Z" fill="#FA8A00"/>
<path d="M7.68607 12.3438C10.9731 12.3438 13.6378 10.928 13.6378 9.18159C13.6378 7.43517 10.9731 6.01941 7.68607 6.01941C4.39901 6.01941 1.73431 7.43517 1.73431 9.18159C1.73431 10.928 4.39901 12.3438 7.68607 12.3438Z" fill="#FFCA00"/>
<path d="M7.68606 11.4027C10.343 11.4027 12.4968 10.4083 12.4968 9.18169C12.4968 7.95507 10.343 6.96069 7.68606 6.96069C5.02915 6.96069 2.87531 7.95507 2.87531 9.18169C2.87531 10.4083 5.02915 11.4027 7.68606 11.4027Z" fill="#FA8A00"/>
<path d="M7.68558 11.4026C10.3428 11.4026 12.4969 10.4353 12.4969 9.24213C12.4969 8.04894 10.3428 7.08167 7.68558 7.08167C5.02837 7.08167 2.87427 8.04894 2.87427 9.24213C2.87427 10.4353 5.02837 11.4026 7.68558 11.4026Z" fill="#FFE700"/>
<path d="M7.68614 11.2401C10.3437 11.2401 12.498 10.3092 12.498 9.16088C12.498 8.01256 10.3437 7.08167 7.68614 7.08167C5.02862 7.08167 2.87427 8.01256 2.87427 9.16088C2.87427 10.3092 5.02862 11.2401 7.68614 11.2401Z" fill="#FF9F00"/>
<path d="M7.28421 8.81248C6.576 9.17947 6.35735 9.22528 6.18705 9.18056C6.02742 9.13857 5.95323 8.99134 6.26012 8.7176C6.49209 8.51585 6.75832 8.35461 7.04701 8.24101L7.27577 8.14668L6.7019 7.73389L6.48551 7.81895C6.19284 7.93388 5.91666 8.0849 5.66376 8.26828L5.0393 8.11069L4.37775 8.65598L5.06234 8.83539C4.69475 9.33052 4.83752 9.75912 5.46535 9.93198C6.27361 10.1539 7.11784 9.7793 7.87775 9.35833C8.51908 9.00934 8.77201 9.00497 8.93669 9.04696C9.19581 9.1124 9.2003 9.34306 8.94119 9.61353C8.67443 9.87755 8.35532 10.0864 8.0031 10.2275L7.72206 10.3426L8.41565 10.8595L8.64048 10.7679C9.02707 10.6035 9.38136 10.3752 9.68762 10.0934L10.4402 10.2908L10.9927 9.65279L10.2058 9.4543C10.4964 8.86647 10.1002 8.48476 9.55666 8.3528C8.71187 8.14886 7.90867 8.48585 7.28421 8.81248Z" fill="#FFCA00"/>
<g style="mix-blend-mode:soft-light">
<g style="mix-blend-mode:soft-light">
<path d="M10.2097 9.45527C10.4205 9.02885 10.2659 8.71312 9.9624 8.52063L9.12604 9.29931C9.09715 9.41965 9.03269 9.52919 8.94056 9.6145C8.74171 9.8138 8.51113 9.98079 8.25764 10.1091L7.88049 10.4608L8.41671 10.8605L8.64154 10.7689C8.80499 10.7007 8.96219 10.6191 9.11143 10.5251L10.2485 9.46509L10.2097 9.45527Z" fill="white"/>
</g>
<g style="mix-blend-mode:soft-light">
<path d="M7.28395 8.8123C6.76628 9.08059 6.51167 9.17602 6.34473 9.19128L5.53479 9.94598C6.32169 10.1281 7.13894 9.76821 7.87694 9.35924C8.0497 9.26211 8.23013 9.17842 8.41652 9.10894L9.27761 8.30681C8.53455 8.22611 7.83871 8.52221 7.28395 8.8123Z" fill="white"/>
</g>
<g style="mix-blend-mode:soft-light">
<path d="M6.26006 8.71706C6.40178 8.59187 6.55795 8.48299 6.72545 8.39261L7.11384 8.03053L6.70128 7.73389L6.58887 7.77751L4.86725 9.3845C4.88242 9.56227 4.99203 9.71168 5.19269 9.82074L6.05209 9.0197C6.05827 8.94554 6.11617 8.84575 6.26006 8.71706Z" fill="white"/>
</g>
</g>
<g style="mix-blend-mode:soft-light">
<g style="mix-blend-mode:soft-light">
<path d="M8.24263 6.97649L9.1633 6.11819C8.92442 6.08547 8.68498 6.06366 8.4461 6.04675L7.46472 6.96176C7.72159 6.95795 7.98183 6.96394 8.24263 6.97649Z" fill="white"/>
</g>
<g style="mix-blend-mode:soft-light">
<path d="M8.18751 11.3885C7.75912 11.4101 7.32974 11.4049 6.90206 11.3727L6.00275 12.2113C6.05165 12.219 6.09774 12.2293 6.1472 12.2364C6.32144 12.261 6.49681 12.2801 6.67161 12.2959C6.84641 12.3117 7.00885 12.322 7.17747 12.3297H7.18085L8.18751 11.3885Z" fill="white"/>
</g>
<g style="mix-blend-mode:soft-light">
<path d="M4.22662 10.7217C4.05474 10.6406 3.88907 10.5477 3.73087 10.4436L3.00018 11.1252C3.15519 11.231 3.3162 11.3282 3.48244 11.4164L4.22662 10.7217Z" fill="white"/>
</g>
<g style="mix-blend-mode:soft-light">
<path d="M5.24778 12.0624L6.09088 11.275C5.56278 11.1938 5.04566 11.0557 4.54912 10.8633L3.79089 11.5722C4.25823 11.7828 4.74635 11.9471 5.24778 12.0624Z" fill="white"/>
</g>
<g style="mix-blend-mode:soft-light">
<path d="M10.9867 7.56589C11.2735 7.68813 11.5441 7.84338 11.7927 8.02831L12.5279 7.34287C12.4084 7.25399 12.2844 7.171 12.1564 7.09421C12.0248 7.01514 11.8854 6.93935 11.7393 6.86682L10.9867 7.56589Z" fill="white"/>
</g>
<g style="mix-blend-mode:soft-light">
<path d="M8.93104 7.03646C9.40487 7.09343 9.87263 7.19068 10.3289 7.3271L11.1107 6.59858C10.6113 6.41454 10.0951 6.27634 9.56899 6.18579L8.68317 7.01192C8.76579 7.0201 8.84842 7.02609 8.93104 7.03646Z" fill="white"/>
</g>
</g>
<path d="M13.639 7.50818H12.7048V8.80544H13.639V7.50818Z" fill="#FA8A00"/>
<path d="M2.66695 7.50818H1.73279V8.80544H2.66695V7.50818Z" fill="#FA8A00"/>
<path d="M7.68607 11.9682C10.9731 11.9682 13.6378 10.5524 13.6378 8.80598C13.6378 7.05955 10.9731 5.6438 7.68607 5.6438C4.39901 5.6438 1.73431 7.05955 1.73431 8.80598C1.73431 10.5524 4.39901 11.9682 7.68607 11.9682Z" fill="#FA8A00"/>
<path d="M7.68607 10.6703C10.9731 10.6703 13.6378 9.25455 13.6378 7.50813C13.6378 5.7617 10.9731 4.34595 7.68607 4.34595C4.39901 4.34595 1.73431 5.7617 1.73431 7.50813C1.73431 9.25455 4.39901 10.6703 7.68607 10.6703Z" fill="#FFCA00"/>
<path d="M7.68606 9.72898C10.343 9.72898 12.4968 8.73461 12.4968 7.50798C12.4968 6.28136 10.343 5.28699 7.68606 5.28699C5.02915 5.28699 2.87531 6.28136 2.87531 7.50798C2.87531 8.73461 5.02915 9.72898 7.68606 9.72898Z" fill="#FA8A00"/>
<path d="M7.68558 9.72914C10.3428 9.72914 12.4969 8.76187 12.4969 7.56867C12.4969 6.37548 10.3428 5.4082 7.68558 5.4082C5.02837 5.4082 2.87427 6.37548 2.87427 7.56867C2.87427 8.76187 5.02837 9.72914 7.68558 9.72914Z" fill="#FFE700"/>
<path d="M7.68614 9.56664C10.3437 9.56664 12.498 8.63574 12.498 7.48742C12.498 6.3391 10.3437 5.4082 7.68614 5.4082C5.02862 5.4082 2.87427 6.3391 2.87427 7.48742C2.87427 8.63574 5.02862 9.56664 7.68614 9.56664Z" fill="#FF9F00"/>
<path d="M7.28421 7.14C6.576 7.50698 6.35735 7.55279 6.18705 7.50808C6.02742 7.46663 5.95323 7.31886 6.26012 7.04512C6.49193 6.84331 6.75821 6.68222 7.04701 6.56907L7.27577 6.47419L6.7019 6.0614L6.48551 6.14701C6.19276 6.26154 5.91654 6.41239 5.66376 6.59579L5.0393 6.4382L4.37775 6.9835L5.06234 7.1629C4.69475 7.65803 4.83752 8.08718 5.46535 8.26004C6.27361 8.48143 7.11784 8.10681 7.87775 7.68584C8.51908 7.33685 8.77201 7.33303 8.93669 7.37448C9.19581 7.43991 9.2003 7.67057 8.94119 7.94104C8.67453 8.20611 8.3552 8.41592 8.00253 8.55777L7.7215 8.67283L8.41509 9.18977L8.63992 9.09871C9.02641 8.93384 9.38066 8.70545 9.68705 8.42363L10.4397 8.62103L10.9922 7.98357L10.2053 7.78454C10.4959 7.19671 10.0996 6.815 9.55609 6.68359C8.71187 6.47528 7.90867 6.81282 7.28421 7.14Z" fill="#FFCA00"/>
<g style="mix-blend-mode:soft-light">
<g style="mix-blend-mode:soft-light">
<path d="M10.2097 7.78181C10.4205 7.35593 10.2659 7.03966 9.9624 6.84717L9.12604 7.62585C9.09715 7.74619 9.03269 7.85573 8.94056 7.94103C8.74171 8.14034 8.51113 8.30733 8.25764 8.43562L7.88049 8.78734L8.41671 9.18704L8.64154 9.09597C8.80489 9.02735 8.96206 8.94564 9.11143 8.85168L10.2502 7.79435L10.2097 7.78181Z" fill="white"/>
</g>
<g style="mix-blend-mode:soft-light">
<path d="M7.28395 7.14025C6.76628 7.40854 6.51167 7.50451 6.34473 7.51923L5.53479 8.27393C6.32169 8.4566 7.13894 8.09616 7.87694 7.68719C8.04983 7.59029 8.23023 7.5066 8.41652 7.43689L9.27761 6.63476C8.53455 6.55297 7.83871 6.84961 7.28395 7.14025Z" fill="white"/>
</g>
<g style="mix-blend-mode:soft-light">
<path d="M6.26006 7.044C6.40152 6.91772 6.55771 6.80792 6.72545 6.71682L7.11384 6.35475L6.70128 6.05811L6.58887 6.10173L4.86725 7.7109C4.88242 7.88867 4.99203 8.03808 5.19269 8.14714L6.05209 7.3461C6.05827 7.27194 6.11617 7.17269 6.26006 7.044Z" fill="white"/>
</g>
</g>
<g style="mix-blend-mode:soft-light">
<g style="mix-blend-mode:soft-light">
<path d="M8.24263 5.30461L9.1633 4.44631C8.92442 4.41414 8.68498 4.39178 8.4461 4.37488L7.46472 5.28989C7.72159 5.28607 7.98183 5.29043 8.24263 5.30461Z" fill="white"/>
</g>
<g style="mix-blend-mode:soft-light">
<path d="M8.18751 9.71479C7.75912 9.73644 7.32974 9.73115 6.90206 9.69897L6.00275 10.5382C6.05165 10.5458 6.09774 10.5556 6.1472 10.5627C6.32144 10.5878 6.49681 10.6063 6.67161 10.6222C6.84641 10.638 7.00885 10.6483 7.17747 10.656H7.18085L8.18751 9.71479Z" fill="white"/>
</g>
<g style="mix-blend-mode:soft-light">
<path d="M4.22662 9.04861C4.05474 8.9675 3.88907 8.87456 3.73087 8.77051L3.00018 9.45213C3.15534 9.55749 3.31633 9.65452 3.48244 9.74277L4.22662 9.04861Z" fill="white"/>
</g>
<g style="mix-blend-mode:soft-light">
<path d="M5.24778 10.3895L6.09088 9.60152C5.56278 9.52033 5.04566 9.38225 4.54912 9.18982L3.79089 9.89871C4.25831 10.1093 4.7464 10.2738 5.24778 10.3895Z" fill="white"/>
</g>
<g style="mix-blend-mode:soft-light">
<path d="M10.9867 5.89236C11.2735 6.01459 11.5441 6.16985 11.7927 6.35477L12.5279 5.66769C12.4084 5.57882 12.2844 5.49583 12.1564 5.41904C12.0248 5.33997 11.8854 5.26363 11.7393 5.19165L10.9867 5.89236Z" fill="white"/>
</g>
<g style="mix-blend-mode:soft-light">
<path d="M8.93104 5.36275C9.40487 5.41972 9.87263 5.51697 10.3289 5.65339L11.1107 4.92542C10.6113 4.74119 10.0951 4.6028 9.56899 4.51208L8.68317 5.34039C8.76579 5.34639 8.84842 5.35239 8.93104 5.36275Z" fill="white"/>
</g>
</g>
<path d="M13.639 5.84119H12.7048V7.13845H13.639V5.84119Z" fill="#FA8A00"/>
<path d="M2.66695 5.84119H1.73279V7.13845H2.66695V5.84119Z" fill="#FA8A00"/>
<path d="M7.68607 10.3009C10.9731 10.3009 13.6378 8.88517 13.6378 7.13874C13.6378 5.39232 10.9731 3.97656 7.68607 3.97656C4.39901 3.97656 1.73431 5.39232 1.73431 7.13874C1.73431 8.88517 4.39901 10.3009 7.68607 10.3009Z" fill="#FA8A00"/>
<path d="M7.68607 9.00331C10.9731 9.00331 13.6378 7.58756 13.6378 5.84113C13.6378 4.09471 10.9731 2.67896 7.68607 2.67896C4.39901 2.67896 1.73431 4.09471 1.73431 5.84113C1.73431 7.58756 4.39901 9.00331 7.68607 9.00331Z" fill="#FFCA00"/>
<path d="M7.68606 8.06223C10.343 8.06223 12.4968 7.06786 12.4968 5.84124C12.4968 4.61461 10.343 3.62024 7.68606 3.62024C5.02915 3.62024 2.87531 4.61461 2.87531 5.84124C2.87531 7.06786 5.02915 8.06223 7.68606 8.06223Z" fill="#FA8A00"/>
<path d="M7.68558 8.06215C10.3428 8.06215 12.4969 7.09487 12.4969 5.90168C12.4969 4.70849 10.3428 3.74121 7.68558 3.74121C5.02837 3.74121 2.87427 4.70849 2.87427 5.90168C2.87427 7.09487 5.02837 8.06215 7.68558 8.06215Z" fill="#FFE700"/>
<path d="M7.68614 7.89965C10.3437 7.89965 12.498 6.96875 12.498 5.82043C12.498 4.67211 10.3437 3.74121 7.68614 3.74121C5.02862 3.74121 2.87427 4.67211 2.87427 5.82043C2.87427 6.96875 5.02862 7.89965 7.68614 7.89965Z" fill="#FF9F00"/>
<path d="M7.28421 5.47191C6.576 5.83889 6.35735 5.8847 6.18705 5.83998C6.02742 5.79854 5.95323 5.65077 6.26012 5.37703C6.49193 5.17522 6.75821 5.01413 7.04701 4.90098L7.27577 4.8061L6.7019 4.39331L6.48551 4.47892C6.19276 4.59345 5.91654 4.7443 5.66376 4.9277L5.0393 4.77011L4.37775 5.31541L5.06234 5.49481C4.69475 5.98994 4.83752 6.42182 5.46535 6.59195C6.27361 6.81334 7.11784 6.43872 7.87775 6.01775C8.51908 5.66876 8.77201 5.66494 8.93669 5.70639C9.19581 5.77182 9.2003 6.00248 8.94119 6.27295C8.67443 6.53698 8.35532 6.74584 8.0031 6.88695L7.72206 7.00201L8.41565 7.51896L8.64048 7.42789C9.02698 7.26302 9.38123 7.03464 9.68762 6.75281L10.4402 6.95021L10.9927 6.31276L10.2058 6.11372C10.4964 5.52589 10.1002 5.14419 9.55666 5.01277C8.71187 4.80828 7.90867 5.14582 7.28421 5.47191Z" fill="#FFCA00"/>
<g style="mix-blend-mode:soft-light">
<g style="mix-blend-mode:soft-light">
<path d="M10.2097 6.11457C10.4205 5.68869 10.2659 5.37242 9.9624 5.17993L9.12604 5.95862C9.09715 6.07895 9.03269 6.18849 8.94056 6.2738C8.74171 6.4731 8.51113 6.64009 8.25764 6.76838L7.88049 7.1201L8.41671 7.5198L8.64154 7.42874C8.80489 7.36011 8.96206 7.2784 9.11143 7.18445L10.2485 6.12493L10.2097 6.11457Z" fill="white"/>
</g>
<g style="mix-blend-mode:soft-light">
<path d="M7.28395 5.47165C6.76628 5.73994 6.51167 5.83591 6.34473 5.85336L5.53479 6.60805C6.32169 6.79072 7.13894 6.43028 7.87694 6.02131C8.04983 5.92441 8.23023 5.84073 8.41652 5.77102L9.27761 4.96889C8.53455 4.88546 7.83871 5.1821 7.28395 5.47165Z" fill="white"/>
</g>
<g style="mix-blend-mode:soft-light">
<path d="M6.26006 5.37701C6.40152 5.25073 6.55771 5.14092 6.72545 5.04983L7.11384 4.68776L6.70128 4.39111L6.58887 4.43474L4.86725 6.04391C4.88242 6.22168 4.99203 6.37109 5.19269 6.48015L6.05209 5.67911C6.05827 5.60495 6.11617 5.50407 6.26006 5.37701Z" fill="white"/>
</g>
</g>
<g style="mix-blend-mode:soft-light">
<g style="mix-blend-mode:soft-light">
<path d="M8.24263 3.63767L9.1633 2.77773C8.92442 2.74556 8.68498 2.7232 8.4461 2.7063L7.46472 3.62131C7.72159 3.61749 7.98183 3.62349 8.24263 3.63767Z" fill="white"/>
</g>
<g style="mix-blend-mode:soft-light">
<path d="M8.18751 8.04859C7.75911 8.06978 7.32974 8.06431 6.90206 8.03223L6.00275 8.87144C6.05165 8.87907 6.09774 8.88889 6.1472 8.89598C6.32144 8.92106 6.49681 8.9396 6.67161 8.95596C6.84641 8.97232 7.00885 8.98159 7.17747 8.98922H7.18085L8.18751 8.04859Z" fill="white"/>
</g>
<g style="mix-blend-mode:soft-light">
<path d="M4.22662 7.38125C4.05474 7.30014 3.88907 7.20721 3.73087 7.10315L3.00018 7.78477C3.1552 7.89033 3.31621 7.98736 3.48244 8.07541L4.22662 7.38125Z" fill="white"/>
</g>
<g style="mix-blend-mode:soft-light">
<path d="M5.24778 8.7215L6.09088 7.93355C5.56278 7.85236 5.04566 7.71428 4.54912 7.52185L3.79089 8.23074C4.25831 8.44136 4.7464 8.60578 5.24778 8.7215Z" fill="white"/>
</g>
<g style="mix-blend-mode:soft-light">
<path d="M10.9867 4.22568C11.2735 4.34792 11.5441 4.50317 11.7927 4.68809L12.5279 4.00266C12.4084 3.91378 12.2844 3.83079 12.1564 3.754C12.0248 3.67493 11.8854 3.59859 11.7393 3.52661L10.9867 4.22568Z" fill="white"/>
</g>
<g style="mix-blend-mode:soft-light">
<path d="M8.93104 3.69612C9.40487 3.75309 9.87263 3.85035 10.3289 3.98677L11.1107 3.25879C10.6113 3.07456 10.0951 2.93618 9.56899 2.84546L8.68317 3.67158C8.76579 3.67976 8.84842 3.68576 8.93104 3.69612Z" fill="white"/>
</g>
</g>
<path d="M13.639 4.1604H12.7048V5.45766H13.639V4.1604Z" fill="#FA8A00"/>
<path d="M2.66695 4.1604H1.73279V5.45766H2.66695V4.1604Z" fill="#FA8A00"/>
<path d="M7.68607 8.62001C10.9731 8.62001 13.6378 7.20426 13.6378 5.45783C13.6378 3.71141 10.9731 2.29565 7.68607 2.29565C4.39901 2.29565 1.73431 3.71141 1.73431 5.45783C1.73431 7.20426 4.39901 8.62001 7.68607 8.62001Z" fill="#FA8A00"/>
<path d="M7.68607 7.32265C10.9731 7.32265 13.6378 5.90689 13.6378 4.16047C13.6378 2.41405 10.9731 0.998291 7.68607 0.998291C4.39901 0.998291 1.73431 2.41405 1.73431 4.16047C1.73431 5.90689 4.39901 7.32265 7.68607 7.32265Z" fill="#FFCA00"/>
<path d="M7.68606 6.38157C10.343 6.38157 12.4968 5.38719 12.4968 4.16057C12.4968 2.93395 10.343 1.93958 7.68606 1.93958C5.02915 1.93958 2.87531 2.93395 2.87531 4.16057C2.87531 5.38719 5.02915 6.38157 7.68606 6.38157Z" fill="#FA8A00"/>
<path d="M7.68558 6.381C10.3428 6.381 12.4969 5.41372 12.4969 4.22053C12.4969 3.02733 10.3428 2.06006 7.68558 2.06006C5.02837 2.06006 2.87427 3.02733 2.87427 4.22053C2.87427 5.41372 5.02837 6.381 7.68558 6.381Z" fill="#FFE700"/>
<path d="M7.68614 6.2185C10.3437 6.2185 12.498 5.2876 12.498 4.13928C12.498 2.99096 10.3437 2.06006 7.68614 2.06006C5.02862 2.06006 2.87427 2.99096 2.87427 4.13928C2.87427 5.2876 5.02862 6.2185 7.68614 6.2185Z" fill="#FF9F00"/>
<path d="M7.28421 3.79137C6.576 4.15835 6.35735 4.20416 6.18705 4.15944C6.02742 4.11745 5.95323 3.97022 6.26012 3.69594C6.49193 3.49413 6.75821 3.33304 7.04701 3.2199L7.27577 3.12501L6.7019 2.71277L6.48551 2.79783C6.19263 2.91234 5.91639 3.06338 5.66376 3.24716L5.0393 3.08902L4.37775 3.63432L5.06234 3.81318C4.69475 4.30885 4.83752 4.73746 5.46535 4.91032C6.27361 5.13171 7.11784 4.75763 7.87776 4.33612C8.51908 3.98713 8.77201 3.98331 8.93669 4.02475C9.19581 4.09019 9.2003 4.3214 8.94119 4.59132C8.67447 4.85552 8.35536 5.06457 8.0031 5.20587L7.72206 5.32093L8.41565 5.83732L8.64048 5.74626C9.02698 5.58138 9.38123 5.353 9.68762 5.07118L10.4402 5.26858L10.9939 4.63167L10.207 4.43264C10.4976 3.84481 10.1013 3.46364 9.55778 3.33168C8.71186 3.12719 7.90867 3.46473 7.28421 3.79137Z" fill="#FFCA00"/>
<g style="mix-blend-mode:soft-light">
<g style="mix-blend-mode:soft-light">
<path d="M10.2097 4.43354C10.4205 4.00766 10.2659 3.69194 9.9624 3.4989L9.12604 4.27813C9.09724 4.39834 9.03275 4.50773 8.94056 4.59277C8.74159 4.79209 8.51104 4.95924 8.25764 5.0879L7.88049 5.43907L8.41671 5.83877L8.64154 5.74771C8.80489 5.67929 8.96206 5.59775 9.11143 5.50396L10.2485 4.4439L10.2097 4.43354Z" fill="white"/>
</g>
<g style="mix-blend-mode:soft-light">
<path d="M7.28395 3.79131C6.76628 4.05905 6.51167 4.15502 6.34473 4.17029L5.53479 4.92498C6.32169 5.10711 7.13894 4.74721 7.87694 4.33769C8.04969 4.2407 8.23012 4.15719 8.41652 4.08795L9.27761 3.28582C8.53455 3.20511 7.83871 3.50121 7.28395 3.79131Z" fill="white"/>
</g>
<g style="mix-blend-mode:soft-light">
<path d="M6.26006 3.69586C6.40149 3.56954 6.55769 3.45973 6.72545 3.36868L7.11384 3.0066L6.70128 2.70996L6.58887 2.75304L4.86725 4.36276C4.88242 4.54107 4.99203 4.68994 5.19269 4.799L6.05209 3.99741C6.05827 3.9227 6.11617 3.82455 6.26006 3.69586Z" fill="white"/>
</g>
</g>
<g style="mix-blend-mode:soft-light">
<g style="mix-blend-mode:soft-light">
<path d="M8.24263 1.96067L9.1633 1.10237C8.92442 1.06966 8.68498 1.04785 8.4461 1.0304L7.46472 1.9454C7.72159 1.93722 7.98183 1.94377 8.24263 1.96067Z" fill="white"/>
</g>
<g style="mix-blend-mode:soft-light">
<path d="M8.18751 6.36707C7.75911 6.38826 7.32974 6.38279 6.90206 6.35071L6.00275 7.18992C6.05165 7.19756 6.09774 7.20737 6.1472 7.21446C6.32144 7.23954 6.49681 7.25808 6.67161 7.27444C6.84641 7.2908 7.00885 7.30007 7.17747 7.30825H7.18085L8.18751 6.36707Z" fill="white"/>
</g>
<g style="mix-blend-mode:soft-light">
<path d="M4.22662 5.70028C4.05472 5.61899 3.88906 5.52587 3.73087 5.42163L3.00018 6.1038C3.15533 6.20934 3.31632 6.30655 3.48244 6.39499L4.22662 5.70028Z" fill="white"/>
</g>
<g style="mix-blend-mode:soft-light">
<path d="M5.24778 7.04115L6.09088 6.2532C5.56287 6.17192 5.04578 6.03402 4.54912 5.84204L3.79089 6.55093C4.25823 6.7616 4.74635 6.92585 5.24778 7.04115Z" fill="white"/>
</g>
<g style="mix-blend-mode:soft-light">
<path d="M10.9867 2.54423C11.2734 2.66669 11.544 2.82193 11.7927 3.00664L12.5279 2.3212C12.4084 2.23251 12.2844 2.1497 12.1564 2.07309C12.0248 1.99402 11.8854 1.91823 11.7393 1.8457L10.9867 2.54423Z" fill="white"/>
</g>
<g style="mix-blend-mode:soft-light">
<path d="M8.93104 2.01407C9.40492 2.07077 9.8727 2.16803 10.3289 2.30471L11.1107 1.57783C10.6113 1.39379 10.0951 1.25558 9.56899 1.16504L8.68317 1.99062C8.76579 1.99825 8.84842 2.0048 8.93104 2.01407Z" fill="white"/>
</g>
</g>
<path d="M21 14.6936H20.0659V15.9909H21V14.6936Z" fill="#FA8A00"/>
<path d="M10.0275 14.6936H9.09332V15.9909H10.0275V14.6936Z" fill="#FA8A00"/>
<path d="M15.0472 19.1529C18.3343 19.1529 20.999 17.7371 20.999 15.9907C20.999 14.2442 18.3343 12.8285 15.0472 12.8285C11.7601 12.8285 9.09546 14.2442 9.09546 15.9907C9.09546 17.7371 11.7601 19.1529 15.0472 19.1529Z" fill="#FA8A00"/>
<path d="M15.0472 17.8557C18.3343 17.8557 20.999 16.44 20.999 14.6936C20.999 12.9471 18.3343 11.5314 15.0472 11.5314C11.7601 11.5314 9.09546 12.9471 9.09546 14.6936C9.09546 16.44 11.7601 17.8557 15.0472 17.8557Z" fill="#FFCA00"/>
<path d="M15.0472 16.9146C17.7041 16.9146 19.858 15.9203 19.858 14.6937C19.858 13.467 17.7041 12.4727 15.0472 12.4727C12.3903 12.4727 10.2365 13.467 10.2365 14.6937C10.2365 15.9203 12.3903 16.9146 15.0472 16.9146Z" fill="#FA8A00"/>
<path d="M15.0467 16.9138C17.7039 16.9138 19.858 15.9466 19.858 14.7534C19.858 13.5602 17.7039 12.5929 15.0467 12.5929C12.3895 12.5929 10.2354 13.5602 10.2354 14.7534C10.2354 15.9466 12.3895 16.9138 15.0467 16.9138Z" fill="#FFE700"/>
<path d="M15.0472 16.7513C17.7048 16.7513 19.8591 15.8204 19.8591 14.6721C19.8591 13.5238 17.7048 12.5929 15.0472 12.5929C12.3897 12.5929 10.2354 13.5238 10.2354 14.6721C10.2354 15.8204 12.3897 16.7513 15.0472 16.7513Z" fill="#FF9F00"/>
<path d="M14.6474 14.3242C13.9392 14.6912 13.7206 14.737 13.5503 14.6923C13.3906 14.6503 13.3164 14.5031 13.6233 14.2288C13.8552 14.0271 14.1215 13.866 14.4102 13.7527L14.6384 13.6579L14.0651 13.2456L13.8487 13.3307C13.5561 13.4456 13.2799 13.5966 13.027 13.78L12.4025 13.6219L11.741 14.1672L12.4256 14.346C12.058 14.8417 12.1979 15.2703 12.8286 15.4432C13.6368 15.6645 14.4811 15.2905 15.241 14.869C15.8823 14.52 16.1352 14.5161 16.2999 14.5581C16.559 14.623 16.5635 14.8542 16.3044 15.1242C16.0376 15.3882 15.7185 15.5973 15.3663 15.7387L15.0853 15.8538L15.7789 16.3702L16.0037 16.2791C16.3903 16.1145 16.7446 15.8861 17.0508 15.604L17.8034 15.8014L18.3554 15.164L17.5685 14.9649C17.8591 14.3771 17.4628 13.9959 16.9188 13.864C16.0728 13.66 15.2696 13.9976 14.6474 14.3242Z" fill="#FFCA00"/>
<g style="mix-blend-mode:soft-light">
<g style="mix-blend-mode:soft-light">
<path d="M17.5703 14.9666C17.7811 14.5407 17.6265 14.225 17.3224 14.032L16.4866 14.8112C16.4578 14.9314 16.3934 15.0408 16.3012 15.1258C16.1024 15.3254 15.8718 15.4925 15.6182 15.621L15.2405 15.9727L15.7773 16.3719L16.0021 16.2808C16.1655 16.2125 16.3227 16.1309 16.472 16.037L17.6091 14.977L17.5703 14.9666Z" fill="white"/>
</g>
<g style="mix-blend-mode:soft-light">
<path d="M14.6477 14.3241C14.13 14.5924 13.8748 14.6879 13.7079 14.7031L12.8985 15.4578C13.6854 15.6399 14.5026 15.28 15.2406 14.8705C15.4134 14.7735 15.5938 14.69 15.7802 14.6208L16.6408 13.8187C15.896 13.7379 15.2002 14.034 14.6477 14.3241Z" fill="white"/>
</g>
<g style="mix-blend-mode:soft-light">
<path d="M13.6212 14.2288C13.7626 14.1036 13.9186 13.9947 14.086 13.9043L14.4744 13.5422L14.0618 13.2456L13.9522 13.2887L12.2306 14.8962C12.2458 15.074 12.3554 15.2234 12.5555 15.3325L13.4154 14.5309C13.4194 14.4573 13.4773 14.3575 13.6212 14.2288Z" fill="white"/>
</g>
</g>
<g style="mix-blend-mode:soft-light">
<g style="mix-blend-mode:soft-light">
<path d="M15.6029 12.4898L16.5236 11.6315C16.2841 11.5988 16.0453 11.577 15.8064 11.5601L14.825 12.4745C15.0824 12.4691 15.3421 12.4756 15.6029 12.4898Z" fill="white"/>
</g>
<g style="mix-blend-mode:soft-light">
<path d="M15.5464 16.9008C15.1182 16.9219 14.689 16.9165 14.2615 16.8844L13.3622 17.7236C13.4111 17.7312 13.4572 17.7416 13.5061 17.7482C13.6809 17.7732 13.8557 17.7918 14.0305 17.8081C14.2053 17.8245 14.3677 17.8338 14.5363 17.8419H14.5397L15.5464 16.9008Z" fill="white"/>
</g>
<g style="mix-blend-mode:soft-light">
<path d="M11.5873 16.2332C11.4154 16.152 11.2497 16.0588 11.0915 15.9546L10.3608 16.6368C10.5158 16.7423 10.6766 16.8395 10.8425 16.9279L11.5873 16.2332Z" fill="white"/>
</g>
<g style="mix-blend-mode:soft-light">
<path d="M12.6089 17.5741L13.452 16.7867C12.9239 16.7053 12.4068 16.5672 11.9102 16.375L11.152 17.0812C11.6192 17.2928 12.1073 17.4579 12.6089 17.5741Z" fill="white"/>
</g>
<g style="mix-blend-mode:soft-light">
<path d="M18.3472 13.0771C18.6339 13.1995 18.9045 13.3548 19.1532 13.5395L19.8884 12.854C19.776 12.7684 19.649 12.6855 19.5169 12.6059C19.3854 12.5269 19.246 12.4511 19.0998 12.3785L18.3472 13.0771Z" fill="white"/>
</g>
<g style="mix-blend-mode:soft-light">
<path d="M16.2917 12.5482C16.7656 12.6049 17.2333 12.7022 17.6896 12.8388L18.4708 12.1103C17.9716 11.9262 17.4556 11.788 16.9296 11.6975L16.0438 12.5236C16.1264 12.5318 16.2091 12.5384 16.2917 12.5482Z" fill="white"/>
</g>
</g>
<path d="M21 13.0264H20.0659V14.3236H21V13.0264Z" fill="#FA8A00"/>
<path d="M10.0275 13.0264H9.09332V14.3236H10.0275V13.0264Z" fill="#FA8A00"/>
<path d="M15.0472 17.4859C18.3343 17.4859 20.999 16.0701 20.999 14.3237C20.999 12.5773 18.3343 11.1615 15.0472 11.1615C11.7601 11.1615 9.09546 12.5773 9.09546 14.3237C9.09546 16.0701 11.7601 17.4859 15.0472 17.4859Z" fill="#FA8A00"/>
<path d="M15.0472 16.1885C18.3343 16.1885 20.999 14.7727 20.999 13.0263C20.999 11.2799 18.3343 9.86414 15.0472 9.86414C11.7601 9.86414 9.09546 11.2799 9.09546 13.0263C9.09546 14.7727 11.7601 16.1885 15.0472 16.1885Z" fill="#FFCA00"/>
<path d="M15.0472 15.2474C17.7041 15.2474 19.858 14.253 19.858 13.0264C19.858 11.7998 17.7041 10.8054 15.0472 10.8054C12.3903 10.8054 10.2365 11.7998 10.2365 13.0264C10.2365 14.253 12.3903 15.2474 15.0472 15.2474Z" fill="#FA8A00"/>
<path d="M15.0467 15.2468C17.7039 15.2468 19.858 14.2796 19.858 13.0864C19.858 11.8932 17.7039 10.9259 15.0467 10.9259C12.3895 10.9259 10.2354 11.8932 10.2354 13.0864C10.2354 14.2796 12.3895 15.2468 15.0467 15.2468Z" fill="#FFE700"/>
<path d="M15.0472 15.0843C17.7048 15.0843 19.8591 14.1534 19.8591 13.0051C19.8591 11.8568 17.7048 10.9259 15.0472 10.9259C12.3897 10.9259 10.2354 11.8568 10.2354 13.0051C10.2354 14.1534 12.3897 15.0843 15.0472 15.0843Z" fill="#FF9F00"/>
<path d="M14.6475 12.6573C13.9393 13.0243 13.7207 13.0701 13.5503 13.0254C13.3907 12.9834 13.3165 12.8362 13.6234 12.5619C13.8553 12.3602 14.1216 12.1991 14.4103 12.0859L14.6385 11.991L14.0652 11.5787L13.8488 11.6638C13.5561 11.7787 13.28 11.9297 13.0271 12.1131L12.3992 11.955L11.7377 12.5003L12.4223 12.6791C12.0547 13.1748 12.1946 13.6034 12.8253 13.7763C13.6335 13.9977 14.4778 13.6236 15.2377 13.2021C15.879 12.8531 16.1319 12.8493 16.2966 12.8913C16.5557 12.9562 16.5602 13.1874 16.3011 13.4573C16.0344 13.7215 15.7153 13.9306 15.363 14.0718L15.082 14.1869L15.7756 14.7033L16.0004 14.6122C16.387 14.4476 16.7413 14.2192 17.0475 13.9371L17.8002 14.1345L18.3521 13.4971L17.5703 13.3019C17.8609 12.714 17.4646 12.3329 16.9205 12.2009C16.0729 11.9932 15.2697 12.3307 14.6475 12.6573Z" fill="#FFCA00"/>
<g style="mix-blend-mode:soft-light">
<g style="mix-blend-mode:soft-light">
<path d="M17.5703 13.3017C17.7811 12.8758 17.6265 12.5601 17.3224 12.3671L16.4866 13.1463C16.4578 13.2665 16.3934 13.3759 16.3012 13.4609C16.1024 13.6604 15.8718 13.8276 15.6182 13.9561L15.2405 14.3078L15.7773 14.7069L16.0021 14.6159C16.1655 14.5476 16.3227 14.466 16.472 14.3721L17.6091 13.3121L17.5703 13.3017Z" fill="white"/>
</g>
<g style="mix-blend-mode:soft-light">
<path d="M14.6476 12.6575C14.1299 12.9258 13.8747 13.0212 13.7078 13.0365L12.8962 13.7928C13.6831 13.9749 14.5003 13.615 15.2383 13.2055C15.4111 13.1085 15.5915 13.025 15.7779 12.9558L16.6384 12.1536C15.8959 12.0713 15.2001 12.3674 14.6476 12.6575Z" fill="white"/>
</g>
<g style="mix-blend-mode:soft-light">
<path d="M13.6212 12.5619C13.7626 12.4367 13.9186 12.3278 14.086 12.2375L14.4744 11.8754L14.0618 11.5787L13.9522 11.6218L12.2306 13.2294C12.2458 13.4071 12.3554 13.5565 12.5555 13.6656L13.4109 12.8656C13.4194 12.7904 13.4773 12.6906 13.6212 12.5619Z" fill="white"/>
</g>
</g>
<g style="mix-blend-mode:soft-light">
<g style="mix-blend-mode:soft-light">
<path d="M15.6029 10.823L16.5236 9.96474C16.2841 9.93203 16.0453 9.91021 15.8064 9.89331L14.825 10.8078C15.0824 10.8023 15.3421 10.8089 15.6029 10.823Z" fill="white"/>
</g>
<g style="mix-blend-mode:soft-light">
<path d="M15.5464 15.2335C15.1182 15.2547 14.689 15.2492 14.2615 15.2172L13.3622 16.0564C13.4111 16.064 13.4572 16.0744 13.5061 16.0809C13.6809 16.106 13.8557 16.1245 14.0305 16.1409C14.2053 16.1573 14.3677 16.1665 14.5363 16.1747H14.5397L15.5464 15.2335Z" fill="white"/>
</g>
<g style="mix-blend-mode:soft-light">
<path d="M11.5873 14.5665C11.4154 14.4852 11.2497 14.3921 11.0915 14.2878L10.3608 14.97C10.5157 15.0757 10.6765 15.173 10.8425 15.2612L11.5873 14.5665Z" fill="white"/>
</g>
<g style="mix-blend-mode:soft-light">
<path d="M12.6089 15.9074L13.452 15.12C12.9239 15.0386 12.4068 14.9005 11.9102 14.7083L11.152 15.4144C11.6191 15.6263 12.1072 15.7914 12.6089 15.9074Z" fill="white"/>
</g>
<g style="mix-blend-mode:soft-light">
<path d="M18.3472 11.4103C18.6341 11.5327 18.9047 11.6882 19.1532 11.8733L19.8884 11.1873C19.776 11.1017 19.649 11.0188 19.5169 10.9392C19.3854 10.8601 19.246 10.7843 19.0998 10.7118L18.3472 11.4103Z" fill="white"/>
</g>
<g style="mix-blend-mode:soft-light">
<path d="M16.2917 10.8813C16.7656 10.9381 17.2333 11.0353 17.6896 11.1719L18.4708 10.4434C17.9716 10.2593 17.4556 10.1211 16.9296 10.0306L16.0438 10.8568C16.1264 10.8649 16.2091 10.8709 16.2917 10.8813Z" fill="white"/>
</g>
</g>
<path d="M21 11.3455H20.0659V12.6427H21V11.3455Z" fill="#FA8A00"/>
<path d="M10.0275 11.3455H9.09332V12.6427H10.0275V11.3455Z" fill="#FA8A00"/>
<path d="M15.0472 15.8052C18.3343 15.8052 20.999 14.3894 20.999 12.643C20.999 10.8966 18.3343 9.48083 15.0472 9.48083C11.7601 9.48083 9.09546 10.8966 9.09546 12.643C9.09546 14.3894 11.7601 15.8052 15.0472 15.8052Z" fill="#FA8A00"/>
<path d="M15.0472 14.5076C18.3343 14.5076 20.999 13.0918 20.999 11.3454C20.999 9.59898 18.3343 8.18323 15.0472 8.18323C11.7601 8.18323 9.09546 9.59898 9.09546 11.3454C9.09546 13.0918 11.7601 14.5076 15.0472 14.5076Z" fill="#FFCA00"/>
<path d="M15.0472 13.5665C17.7041 13.5665 19.858 12.5721 19.858 11.3455C19.858 10.1189 17.7041 9.12451 15.0472 9.12451C12.3903 9.12451 10.2365 10.1189 10.2365 11.3455C10.2365 12.5721 12.3903 13.5665 15.0472 13.5665Z" fill="#FA8A00"/>
<path d="M15.0467 13.5664C17.7039 13.5664 19.858 12.5991 19.858 11.406C19.858 10.2128 17.7039 9.24548 15.0467 9.24548C12.3895 9.24548 10.2354 10.2128 10.2354 11.406C10.2354 12.5991 12.3895 13.5664 15.0467 13.5664Z" fill="#FFE700"/>
<path d="M15.0472 13.4039C17.7048 13.4039 19.8591 12.473 19.8591 11.3247C19.8591 10.1764 17.7048 9.24548 15.0472 9.24548C12.3897 9.24548 10.2354 10.1764 10.2354 11.3247C10.2354 12.473 12.3897 13.4039 15.0472 13.4039Z" fill="#FF9F00"/>
<path d="M14.6475 10.9761C13.9393 11.343 13.7207 11.3888 13.5503 11.3441C13.3907 11.3021 13.3165 11.1549 13.6234 10.8812C13.8553 10.6793 14.1216 10.5181 14.4103 10.4046L14.6385 10.3103L14.0652 9.89746L13.8488 9.98307C13.5561 10.0976 13.2798 10.2484 13.0271 10.4319L12.3992 10.2743L11.7377 10.8196L12.4223 10.999C12.0547 11.4941 12.1946 11.9227 12.8253 12.0961C13.6335 12.3175 14.4778 11.9429 15.2377 11.5219C15.879 11.1729 16.1319 11.1691 16.2966 11.2105C16.5557 11.276 16.5602 11.5066 16.3011 11.7771C16.0343 12.041 15.7152 12.2498 15.363 12.3911L15.082 12.5062L15.7756 13.0231L16.0004 12.9315C16.387 12.767 16.7413 12.5388 17.0475 12.257L17.8002 12.4544L18.3521 11.8169L17.5652 11.6179C17.8558 11.03 17.4595 10.6483 16.9155 10.5169C16.0729 10.3124 15.2697 10.65 14.6475 10.9761Z" fill="#FFCA00"/>
<g style="mix-blend-mode:soft-light">
<g style="mix-blend-mode:soft-light">
<path d="M17.5703 11.619C17.7811 11.1925 17.6265 10.8768 17.3224 10.6843L16.4866 11.463C16.4578 11.5833 16.3933 11.6929 16.3012 11.7782C16.1022 11.9774 15.8716 12.1443 15.6182 12.2728L15.2405 12.6245L15.7773 13.0242L16.0021 12.9326C16.1655 12.8643 16.3227 12.7827 16.472 12.6888L17.6091 11.6293L17.5703 11.619Z" fill="white"/>
</g>
<g style="mix-blend-mode:soft-light">
<path d="M14.6477 10.9761C14.13 11.2443 13.8748 11.3398 13.7079 11.355L12.8985 12.1097C13.6854 12.2919 14.5026 11.932 15.2406 11.523C15.4135 11.4261 15.5939 11.3424 15.7802 11.2727L16.6408 10.4706C15.896 10.3899 15.2002 10.6843 14.6477 10.9761Z" fill="white"/>
</g>
<g style="mix-blend-mode:soft-light">
<path d="M13.6212 10.8813C13.7625 10.7551 13.9185 10.6453 14.086 10.5541L14.4744 10.192L14.0618 9.89539L13.9522 9.93901L12.2306 11.5482C12.2458 11.7259 12.3554 11.8754 12.5555 11.9844L13.4154 11.1834C13.4194 11.1092 13.4773 11.0116 13.6212 10.8813Z" fill="white"/>
</g>
</g>
<g style="mix-blend-mode:soft-light">
<g style="mix-blend-mode:soft-light">
<path d="M15.6027 9.14184L16.5239 8.28518C16.2844 8.25246 16.0456 8.23065 15.8067 8.21375L14.8253 9.12875C15.0822 9.12167 15.3419 9.12766 15.6027 9.14184Z" fill="white"/>
</g>
<g style="mix-blend-mode:soft-light">
<path d="M15.5464 13.5523C15.1182 13.574 14.689 13.5687 14.2615 13.5365L13.3622 14.3752C13.4111 14.3828 13.4572 14.3932 13.5061 14.4003C13.6809 14.4248 13.8557 14.4439 14.0305 14.4597C14.2053 14.4755 14.3677 14.4859 14.5363 14.4935H14.5397L15.5464 13.5523Z" fill="white"/>
</g>
<g style="mix-blend-mode:soft-light">
<path d="M11.5873 12.8854C11.4154 12.8043 11.2497 12.7114 11.0915 12.6073L10.3608 13.2889C10.5158 13.3943 10.6766 13.4913 10.8425 13.5796L11.5873 12.8854Z" fill="white"/>
</g>
<g style="mix-blend-mode:soft-light">
<path d="M12.6089 14.2291L13.452 13.4411C12.9238 13.36 12.4067 13.2219 11.9102 13.0294L11.152 13.7383C11.6194 13.9489 12.1075 14.1133 12.6089 14.2291Z" fill="white"/>
</g>
<g style="mix-blend-mode:soft-light">
<path d="M18.3472 9.72952C18.634 9.85176 18.9046 10.007 19.1532 10.1919L19.8884 9.5065C19.769 9.41762 19.645 9.33463 19.5169 9.25784C19.3854 9.17823 19.246 9.10243 19.0998 9.02991L18.3472 9.72952Z" fill="white"/>
</g>
<g style="mix-blend-mode:soft-light">
<path d="M16.2917 9.20003C16.7655 9.25705 17.2333 9.35431 17.6896 9.49067L18.4708 8.76216C17.9715 8.57829 17.4555 8.44009 16.9296 8.34937L16.0438 9.17549C16.1264 9.18367 16.2091 9.18967 16.2917 9.20003Z" fill="white"/>
</g>
</g>
<path d="M10.8589 10.793L10.1826 11.4202L11.1079 12.3592L11.7841 11.732L10.8589 10.793Z" fill="#FA8A00"/>
<path d="M2.92738 18.1486L2.2511 18.7758L3.17637 19.7147L3.85265 19.0876L2.92738 18.1486Z" fill="#FA8A00"/>
<path d="M9.73062 18.0082C12.1067 15.8046 13.0245 12.9948 11.7805 11.7325C10.5366 10.4701 7.60205 11.2331 5.22599 13.4367C2.84994 15.6403 1.93216 18.45 3.17608 19.7124C4.42 20.9748 7.35457 20.2118 9.73062 18.0082Z" fill="#FA8A00"/>
<path d="M8.80681 17.0702C11.1829 14.8666 12.1006 12.0568 10.8567 10.7944C9.61281 9.53205 6.67825 10.2951 4.30221 12.4987C1.92616 14.7023 1.00839 17.512 2.2523 18.7744C3.49622 20.0368 6.43077 19.2738 8.80681 17.0702Z" fill="#FFCA00"/>
<path d="M8.13629 16.3901C10.0568 14.6089 10.9055 12.4462 10.0318 11.5596C9.15812 10.6729 6.89296 11.3981 4.97243 13.1792C3.05189 14.9604 2.20325 17.1231 3.07693 18.0097C3.9506 18.8964 6.21576 18.1713 8.13629 16.3901Z" fill="#FA8A00"/>
<path d="M8.13522 16.3901C10.056 14.6087 10.9241 12.4654 10.0742 11.6029C9.22437 10.7404 6.97834 11.4853 5.0576 13.2667C3.13685 15.0481 2.26872 17.1914 3.11859 18.0539C3.96845 18.9164 6.21447 18.1715 8.13522 16.3901Z" fill="#FFE700"/>
<path d="M8.0203 16.2723C9.94129 14.4907 10.8355 12.3736 10.0176 11.5435C9.1997 10.7134 6.97938 11.4848 5.05839 13.2664C3.13741 15.0479 2.24318 17.1651 3.06109 17.9951C3.879 18.8252 6.09931 18.0538 8.0203 16.2723Z" fill="#FF9F00"/>
<path d="M6.58313 14.2429C7.35822 14.0395 7.54989 13.9277 7.64263 13.7822C7.72919 13.6458 7.67916 13.4888 7.26211 13.4931C6.95074 13.4998 6.64297 13.5593 6.35268 13.6687L6.11942 13.7516L6.24645 13.0694L6.46397 12.9882C6.75831 12.8772 7.06628 12.8039 7.38014 12.7701L7.72356 12.2401L8.5914 12.1986L8.21931 12.7843C8.83759 12.901 9.03768 13.3061 8.69988 13.8514C8.26709 14.5499 7.38801 14.8378 6.53704 15.0358C5.82321 15.2076 5.63772 15.3728 5.54555 15.5124C5.40278 15.7305 5.56241 15.9034 5.93899 15.9284C6.31984 15.9435 6.6999 15.8838 7.05639 15.7529L7.34136 15.6509L7.20084 16.4879L6.97096 16.5719C6.57399 16.7086 6.15565 16.7778 5.73441 16.7764L5.32522 17.4198L4.47368 17.3217L4.90535 16.6548C4.27865 16.4198 4.29832 15.8783 4.60127 15.4213C5.07397 14.7075 5.89741 14.4202 6.58313 14.2429Z" fill="#FFCA00"/>
<g style="mix-blend-mode:soft-light">
<g style="mix-blend-mode:soft-light">
<path d="M5.38569 12.8114L5.44206 11.5736C5.2459 11.7105 5.0565 11.8544 4.87161 12.0028L4.81525 13.3218C4.99337 13.1484 5.18671 12.9783 5.38569 12.8114Z" fill="white"/>
</g>
<g style="mix-blend-mode:soft-light">
<path d="M8.48513 16.0385C8.19055 16.3409 7.87648 16.6248 7.54479 16.8886L7.48859 18.0986C7.52962 18.0713 7.56953 18.0479 7.61056 18.0195C7.75445 17.9208 7.89159 17.8167 8.03211 17.7114C8.17263 17.6062 8.29347 17.5048 8.41993 17.3979L8.48513 16.0385Z" fill="white"/>
</g>
<g style="mix-blend-mode:soft-light">
<path d="M5.14997 18.2097C4.96745 18.2664 4.78095 18.3103 4.59193 18.3411L4.54852 19.3227C4.73637 19.2951 4.92248 19.2574 5.106 19.2098L5.14997 18.2097Z" fill="white"/>
</g>
<g style="mix-blend-mode:soft-light">
<path d="M6.84053 18.4958L6.89056 17.36C6.45186 17.6553 5.98055 17.9022 5.48538 18.0961L5.44098 19.1148C5.92782 18.9548 6.39672 18.7474 6.84053 18.4958Z" fill="white"/>
</g>
<g style="mix-blend-mode:soft-light">
<path d="M7.78552 11.3982C8.07978 11.2942 8.38587 11.225 8.6972 11.1921L8.74048 10.2035C8.59603 10.2188 8.44708 10.2422 8.29532 10.2733C8.14412 10.3044 7.98899 10.3425 7.83217 10.3883L7.78552 11.3982Z" fill="white"/>
</g>
<g style="mix-blend-mode:soft-light">
<path d="M5.92262 12.3934C6.30566 12.1167 6.71304 11.8733 7.14005 11.666L7.18615 10.6157C6.69415 10.8176 6.2226 11.0635 5.7776 11.3502L5.72589 12.5417C5.79109 12.4926 5.85573 12.4414 5.92262 12.3934Z" fill="white"/>
</g>
</g>
<g style="mix-blend-mode:soft-light">
<g style="mix-blend-mode:soft-light">
<path d="M7.05986 15.7521L7.34564 15.6501L7.20473 16.4872L6.97418 16.5712C6.94769 16.581 6.91781 16.5886 6.88794 16.5979L6.92684 15.7925C6.97137 15.7788 7.0159 15.7674 7.05986 15.7521Z" fill="white"/>
</g>
<g style="mix-blend-mode:soft-light">
<path d="M7.26249 13.4929C7.18267 13.4929 7.11017 13.5016 7.03766 13.5092L7.07082 12.8227C7.17368 12.8025 7.27541 12.7807 7.38108 12.7682L7.72451 12.2382H7.73294L7.66606 13.621C7.63065 13.5469 7.51429 13.4902 7.26249 13.4929Z" fill="white"/>
</g>
<g style="mix-blend-mode:soft-light">
<path d="M5.6107 14.5852L5.5673 15.4844C5.56054 15.4937 5.55264 15.5029 5.54701 15.5117C5.47429 15.6207 5.4805 15.7216 5.55208 15.7952L5.4867 17.1688L5.32661 17.4191L5.14398 17.3984L5.27081 14.7733C5.37969 14.7034 5.49323 14.6406 5.6107 14.5852Z" fill="white"/>
</g>
<g style="mix-blend-mode:soft-light">
<path d="M7.6594 13.7483L7.61331 14.7004C7.40391 14.7886 7.18874 14.8633 6.96918 14.924L7.00796 14.1224C7.43288 13.9899 7.57003 13.8961 7.6431 13.7821C7.64922 13.7712 7.65466 13.7599 7.6594 13.7483Z" fill="white"/>
</g>
<g style="mix-blend-mode:soft-light">
<path d="M4.63656 16.4984C4.29835 16.2257 4.3519 15.796 4.60161 15.4209C4.63036 15.3783 4.66361 15.3418 4.69405 15.302L4.63656 16.4984Z" fill="white"/>
</g>
<g style="mix-blend-mode:soft-light">
<path d="M8.60247 12.9226C8.9046 13.1113 8.95476 13.4417 8.70054 13.8496C8.6546 13.9208 8.60356 13.9887 8.54779 14.053L8.60247 12.9226Z" fill="white"/>
</g>
<g style="mix-blend-mode:soft-light">
<path d="M4.59558 17.3356L4.47327 17.322L4.60629 17.1169L4.59558 17.3356Z" fill="white"/>
</g>
</g>
</svg>
