<svg width="27" height="28" viewBox="0 0 27 28" fill="none" xmlns="http://www.w3.org/2000/svg">
<path fill-rule="evenodd" clip-rule="evenodd" d="M23.76 0.495605H3.24C1.4506 0.495605 0 1.9462 0 3.73561V24.2556C0 26.045 1.4506 27.4956 3.24 27.4956H23.76C25.5494 27.4956 27 26.045 27 24.2556V3.73561C27 1.9462 25.5494 0.495605 23.76 0.495605ZM13.9752 3.38423C13.6594 3.22858 13.283 3.12897 12.9384 3.24829C11.8976 3.43559 11.3497 4.76552 11.8084 5.67585C11.7808 5.70115 11.7532 5.72683 11.7256 5.75251C11.698 5.77819 11.6704 5.80386 11.6429 5.82916C11.442 5.55351 11.0845 5.62986 10.8004 5.69776C10.1989 5.90008 9.81343 6.45516 9.61165 7.03071C9.3609 7.7067 9.38282 8.44221 9.46958 9.14682C9.3181 9.21887 9.15597 9.22709 8.99365 9.23531C8.85635 9.24227 8.71891 9.24923 8.58766 9.29484C8.56725 9.85823 8.53098 10.4216 8.43274 10.9775C8.43044 10.9943 8.42802 11.0111 8.42559 11.0281C8.40424 11.177 8.38231 11.3299 8.43727 11.4744C8.48176 11.4848 8.52619 11.4953 8.57062 11.5059C8.77919 11.5555 8.98763 11.605 9.20069 11.633C9.04199 11.6624 8.89085 11.7206 8.74878 11.7961L8.77296 12.0446C8.75576 12.0243 8.7387 12.004 8.72167 11.9837C8.69372 11.9504 8.66586 11.9173 8.63769 11.8845C8.59058 12.2895 8.64696 12.6871 8.70344 13.0854C8.74934 13.409 8.79529 13.7331 8.78581 14.0618C8.50196 14.0018 8.46398 14.268 8.43282 14.4865C8.42664 14.5298 8.42074 14.5712 8.41324 14.6079C8.43778 14.6303 8.46206 14.653 8.48635 14.6757C8.50852 14.6964 8.53069 14.7171 8.55305 14.7377C8.50846 14.8148 8.47143 14.894 8.44196 14.9771C8.46138 15.0457 8.46809 15.1182 8.47476 15.1903C8.48859 15.3397 8.50222 15.4871 8.62862 15.5926C8.60535 15.739 8.58125 15.8853 8.55715 16.0316C8.47867 16.5081 8.40018 16.9846 8.35051 17.4648C8.33896 17.5547 8.35738 17.6443 8.37572 17.7335C8.3996 17.8496 8.42333 17.965 8.38059 18.0795C8.34807 18.1846 8.29354 18.2793 8.239 18.374C8.17467 18.4857 8.11034 18.5974 8.08216 18.7261C7.8625 18.9432 7.72275 19.2194 7.58433 19.493C7.55078 19.5593 7.51731 19.6254 7.4828 19.6905C7.38273 19.8682 7.36201 20.066 7.34126 20.2642C7.33084 20.3638 7.32041 20.4634 7.29992 20.5605C7.26542 20.6204 7.22772 20.6799 7.18976 20.7399C7.0481 20.9636 6.90284 21.1931 6.90695 21.4653C6.90652 21.4923 6.90538 21.5199 6.90422 21.5477C6.89748 21.7106 6.89038 21.882 7.02333 22C6.94712 22.4045 6.84147 22.8023 6.73582 23.2C6.6687 23.4527 6.60158 23.7054 6.54202 23.9598C6.51783 24.2088 6.50121 24.4799 6.61759 24.7104C7.05593 24.835 7.51148 24.7966 7.9601 24.7589C8.01954 24.7539 8.07886 24.7489 8.13801 24.7443C8.17202 24.523 8.17806 24.2972 8.06773 24.0963C7.88787 23.4569 8.06312 22.762 8.38127 22.1941C8.66089 22.1428 8.75618 21.8724 8.82268 21.6323C8.89004 21.386 9.00026 21.1564 9.11041 20.9269C9.23879 20.6594 9.36706 20.3922 9.42726 20.0991C9.43786 20.0262 9.42469 19.9526 9.41157 19.8793C9.39382 19.7801 9.37616 19.6815 9.41743 19.5855C9.43431 19.5466 9.44971 19.5059 9.46526 19.4648C9.52203 19.315 9.58057 19.1604 9.71881 19.0698C9.88129 18.9647 9.96291 18.7856 10.0324 18.6128C10.0613 18.5255 10.134 18.4775 10.2073 18.4292C10.2685 18.3888 10.33 18.3482 10.3665 18.2842C10.444 18.1492 10.4612 17.9976 10.4783 17.8457C10.4943 17.7043 10.5103 17.5627 10.575 17.4339C10.6213 17.325 10.6616 17.2119 10.702 17.0985C10.8146 16.7824 10.9281 16.4639 11.1751 16.227C11.2606 16.1532 11.2972 16.0522 11.3337 15.9513C11.3649 15.8651 11.3961 15.7789 11.4577 15.7097C11.4776 15.7486 11.4968 15.7884 11.516 15.8282C11.587 15.9755 11.6589 16.1246 11.7742 16.2428C11.869 16.2834 11.973 16.2857 12.0763 16.2881C12.1113 16.2888 12.1463 16.2896 12.1808 16.2919C12.4949 16.7512 12.8054 17.2129 13.1159 17.6748C13.1475 17.7218 13.1792 17.7689 13.2108 17.8159C13.3552 18.0532 13.6824 18.1016 13.925 17.9995C13.9486 18.039 13.9766 18.0767 14.0046 18.1145C14.0625 18.1927 14.1207 18.2714 14.1426 18.3666C14.1357 18.4379 14.1279 18.5092 14.1201 18.5805C14.104 18.7265 14.088 18.8727 14.0799 19.0198C13.9461 19.1459 13.8479 19.3196 13.8834 19.5091C13.9287 19.8988 13.9644 20.2899 13.9945 20.6813C14.0111 20.7777 14.0396 20.8716 14.0681 20.9655C14.1188 21.1326 14.1695 21.2993 14.1524 21.4787L14.3006 21.6027C14.2896 21.7926 14.3065 21.983 14.3235 22.1731C14.3448 22.4124 14.3661 22.6512 14.3315 22.8881C14.2048 23.1342 14.1575 23.4046 14.1102 23.675C14.0854 23.8172 14.0605 23.9594 14.0241 24.098C14.2059 24.3096 14.4655 24.2812 14.7185 24.2536C14.8122 24.2434 14.9051 24.2332 14.9928 24.2354C15.1332 24.2516 15.2688 24.2935 15.4043 24.3354C15.5921 24.3935 15.7797 24.4515 15.9799 24.441C16.1052 24.4391 16.2308 24.4409 16.3566 24.4427C16.6797 24.4473 17.0032 24.452 17.322 24.3932C17.3515 24.2341 17.3629 24.0715 17.3009 23.9183C17.0978 23.7876 16.8778 23.6879 16.6473 23.6192C16.4592 23.5722 16.3357 23.4253 16.2152 23.282C16.179 23.2388 16.1429 23.196 16.1055 23.1563C16.0676 23.107 16.0251 23.0594 15.9824 23.0116C15.8581 22.8726 15.7319 22.7315 15.7118 22.5393C15.6772 22.2247 15.6874 21.906 15.6975 21.5901C15.6987 21.5525 15.6999 21.5149 15.701 21.4774C15.7194 21.4272 15.7447 21.3795 15.7699 21.3318C15.8206 21.236 15.8711 21.1405 15.865 21.0264C15.9049 20.8572 15.8747 20.6906 15.8445 20.5242C15.8152 20.3623 15.7859 20.2006 15.8212 20.037C15.937 19.3022 16.0284 18.5606 16.005 17.8159C15.9657 17.76 15.9272 17.705 15.8894 17.6499C15.8775 17.5296 15.8649 17.411 15.8523 17.2923L15.8516 17.2859C15.8466 17.2837 15.8415 17.2815 15.8364 17.2793C15.7435 17.2389 15.6433 17.1953 15.6233 17.0843C15.407 16.4813 15.1596 15.8899 14.8818 15.3126C14.6121 14.8029 14.2607 14.3406 13.8745 13.9139C13.8312 13.7876 13.8068 13.6562 13.7824 13.525C13.768 13.4476 13.7537 13.3702 13.7354 13.2939C13.7732 13.217 13.8117 13.1406 13.8511 13.0643C13.9016 13.0714 13.9569 13.0907 14.0133 13.1104C14.15 13.1582 14.2938 13.2085 14.3959 13.093C14.5607 12.8416 14.6929 12.5592 14.6763 12.2511C14.6754 12.039 14.6993 11.8278 14.7231 11.6168C14.7583 11.3057 14.7934 10.9951 14.7488 10.6832C14.7073 10.443 14.5138 10.2708 14.2795 10.2262C14.3265 10.0563 14.3717 9.88557 14.4005 9.71195C14.5291 9.77811 14.6569 9.84857 14.7851 9.91924C15.2714 10.1873 15.7629 10.4583 16.3245 10.5079C16.2981 10.6408 16.552 10.6929 16.3525 10.5268C16.6186 10.5661 16.7928 10.4096 16.9682 10.252C17.0513 10.1773 17.1347 10.1023 17.2283 10.0479C17.473 9.874 17.5181 9.59276 17.5632 9.31125C17.5881 9.15618 17.6129 9.00103 17.6712 8.86369C17.7853 8.82593 17.9017 8.79179 18.0173 8.75864C17.9968 8.6293 17.9651 8.50165 17.9335 8.37406C17.8733 8.13072 17.813 7.88761 17.8299 7.63345C17.842 7.6244 17.8543 7.6153 17.8666 7.60614C18.0643 7.45932 18.2839 7.29623 18.3636 7.0588C18.4435 7.01961 18.5244 6.97958 18.6045 6.93729C18.9072 6.93261 19.21 6.93377 19.5128 6.93494C19.7958 6.93603 20.079 6.93712 20.3623 6.93344C20.4652 6.9387 20.471 6.84604 20.4765 6.75908C20.479 6.72007 20.4814 6.6822 20.4924 6.65484C20.6405 6.75007 20.8248 6.76132 20.9927 6.7145C21.1875 6.65051 21.391 6.65505 21.5942 6.65958C21.6858 6.66163 21.7772 6.66367 21.8678 6.65945C21.908 6.66053 21.9492 6.65947 21.9905 6.65839C22.1444 6.65439 22.3017 6.65031 22.4255 6.75679C22.6621 6.71574 22.903 6.71954 23.1434 6.72332L23.1639 6.72364C23.1656 6.67878 23.1671 6.63395 23.1687 6.58912C23.1706 6.53503 23.1725 6.48095 23.1746 6.42684L23.1541 6.42692C22.969 6.42764 22.7839 6.42837 22.5995 6.43288C22.5461 6.41138 22.4921 6.39046 22.4385 6.3697L22.4242 6.36416C22.4096 6.37485 22.3884 6.39032 22.3666 6.4062C22.3409 6.42496 22.3144 6.44429 22.2972 6.45697C22.0191 6.47976 21.7384 6.47525 21.4582 6.47076C21.3111 6.4684 21.1642 6.46604 21.0178 6.46762C21.0191 6.43449 21.0241 6.4004 21.0292 6.36623C21.0445 6.26346 21.0598 6.15986 20.9731 6.07876C20.9598 6.09446 20.9396 6.1182 20.9198 6.14143C20.9023 6.1619 20.8851 6.18199 20.8734 6.19582L20.7404 6.03277C20.7384 5.84259 20.7376 5.65247 20.7369 5.46236C20.7367 5.43497 20.7366 5.40758 20.7365 5.38019C20.6987 5.38094 20.6232 5.38321 20.5846 5.38479C20.5849 5.50322 20.5848 5.62181 20.5848 5.74042C20.5846 5.89858 20.5845 6.05679 20.5854 6.2147C20.5653 6.2147 20.5352 6.21451 20.5051 6.21432C20.4753 6.21413 20.4456 6.21394 20.4261 6.21394C20.4291 6.16176 20.4365 6.05746 20.4403 6.00551C19.5971 5.99709 18.7542 5.99824 17.9113 5.99939C17.2341 6.00031 16.5569 6.00124 15.8795 5.9972C15.8795 5.96246 15.8789 5.89298 15.878 5.85816C15.7852 5.83558 15.693 5.81217 15.6023 5.78649C15.6014 5.64451 15.5985 5.49944 15.5267 5.37331C15.4822 5.50967 15.4505 5.64963 15.4189 5.78945C15.4064 5.8447 15.394 5.89993 15.3807 5.95491C15.217 5.9435 15.0644 5.99182 14.912 6.04008C14.7416 6.09405 14.5715 6.14794 14.3863 6.11803C14.3809 6.05511 14.374 5.99226 14.3671 5.92939C14.3519 5.79076 14.3367 5.65204 14.3372 5.51227C14.3754 5.49948 14.4156 5.48847 14.4564 5.47732C14.5908 5.44057 14.7308 5.40228 14.8201 5.29334C14.9909 4.87276 14.8783 4.39848 14.7022 3.99822C14.7071 3.98651 14.7143 3.96858 14.7215 3.95064C14.7287 3.93271 14.7358 3.91477 14.7408 3.90306C14.7333 3.88935 14.7227 3.8701 14.7113 3.84964C14.694 3.81828 14.6751 3.78407 14.6637 3.76259C14.422 3.67173 14.2055 3.53245 13.9897 3.39353L13.9752 3.38423ZM16.4964 7.48965C16.3692 7.35523 16.4879 7.27057 16.6088 7.19656C16.6995 7.1958 16.7909 7.19436 16.8816 7.19278C16.9323 7.31203 16.961 7.43822 16.9731 7.56737C16.9459 7.59463 16.8907 7.65051 16.8635 7.67846C16.7335 7.96 16.5415 8.22599 16.3006 8.42378C16.2218 8.23055 16.1267 8.04437 16.0163 7.86726C15.998 7.75836 16.105 7.70526 16.2035 7.65637C16.2431 7.63671 16.2814 7.61773 16.3095 7.59606C16.3723 7.56215 16.4344 7.52658 16.4964 7.48965Z" fill="#CECECE"/>
</svg>
