<svg width="29" height="29" viewBox="0 0 29 29" fill="none" xmlns="http://www.w3.org/2000/svg">
<path d="M28.7077 6.63119C28.5954 1.31679 28.5884 2.46553 28.6978 0.809201C28.7043 0.711001 28.6302 0.62615 28.532 0.61944C20.6186 0.0781514 20.3187 0.0157394 19.7055 0.0157394C8.90993 0.0148736 14.5776 -0.161539 0.167859 0.688489C0.0699476 0.694334 -0.00487473 0.778031 0.000248103 0.87587C0.928923 18.6934 0.895012 15.7868 0.420609 27.6616C0.417218 27.7469 0.474723 27.8226 0.557843 27.8422C1.63631 28.0972 1.44517 27.9968 3.96092 27.9987C3.96503 27.9999 8.67544 27.4855 8.67969 27.4851C8.70191 27.4887 15.1934 28.5542 15.216 28.5542C15.221 28.5542 15.2259 28.5539 15.2309 28.5535C22.8387 27.916 20.658 28.07 25.5662 27.798L28.4482 28.3809C28.5603 28.4034 28.6631 28.3168 28.6619 28.2041C28.5995 22.4018 28.7077 6.63119 28.7077 6.63119ZM17.009 6.20823C17.0304 6.20303 17.0611 6.19553 17.0993 6.18536L19.1506 5.72308C20.2014 5.45979 20.3566 5.39565 21.2558 4.97291H21.2559C21.671 5.11692 22.8093 5.74681 23.0979 6.10844C23.2886 6.34784 23.276 6.40109 23.216 6.65745C23.2045 6.70666 23.1913 6.7633 23.1774 6.83018C23.1765 6.83459 23.1758 6.83913 23.1751 6.8436L22.724 10.3736C22.2777 10.39 22.2405 10.3558 22.117 10.2422C22.0661 10.1952 22.0027 10.1367 21.8908 10.0618C21.2121 9.60618 18.9908 7.96262 18.2894 7.39687L16.9106 6.28904L16.9217 6.27829C16.9366 6.26343 16.9499 6.24344 16.9587 6.22432C16.9656 6.21891 16.9929 6.2122 17.009 6.20823ZM20.2056 23.9816C20.1653 23.9412 2.9681 5.71009 2.95547 5.68491L4.4579 4.53234L25.4536 18.4348C25.28 18.932 25.2108 19.5025 25.1064 19.9764C24.7376 21.6498 24.2633 22.382 23.5215 23.972C22.4599 24.0142 20.2787 24.006 20.2056 23.9816ZM4.5618 19.0491C4.7551 18.5846 5.02084 17.8372 5.24422 17.4586C6.34238 18.1449 10.6323 22.4552 11.0054 23.0372C10.7987 23.1139 9.91112 23.2457 8.43639 23.8349C7.50202 24.2076 6.61974 24.5612 5.76754 24.272C5.68255 24.2434 5.45599 24.0511 5.12005 23.7611C4.50646 23.2315 3.95081 22.8498 3.62772 22.6591C3.07662 22.3338 3.16248 22.4024 4.5618 19.0491Z" fill="#CECECE"/>
<path d="M2.19462 19.0871C2.05999 12.1422 2.21035 15.9253 1.41235 0.615234L0.167859 0.688614C0.0699476 0.694458 -0.00487473 0.778155 0.000248103 0.875994L0.662825 13.5883C0.794431 20.3788 0.830435 17.403 0.420609 27.6618C0.417218 27.747 0.474723 27.8227 0.557843 27.8424C1.16645 27.9863 1.41942 28.0185 1.84757 28.0185C1.83415 27.9727 1.81936 28.479 2.19462 19.0871Z" fill="#CECECE"/>
<path d="M11.8985 23.4296C11.8985 23.4296 12.6263 23.1791 12.028 22.5225C9.58626 19.7991 8.09876 18.8125 6.68493 17.2613C6.09408 16.6217 5.24426 17.4585 5.24426 17.4585C10.7698 22.3703 9.66288 21.6593 10.6369 22.5997C10.7662 22.7245 10.8682 22.8231 11.0054 23.0371C10.9799 23.0465 10.867 23.075 10.7107 23.1145C8.41176 23.6946 8.06687 24.0884 7.04036 24.3084C7.99832 25.0895 9.68756 24.1365 10.8919 23.7219C11.1798 23.6228 11.5613 23.5177 11.8985 23.4296Z" fill="#CECECE"/>
<path d="M26.4987 16.9888C26.4986 16.9888 6.42623 4.18803 6.42623 4.18803C5.75377 3.75922 5.02856 3.96558 4.45776 4.53241L25.4534 18.4348C25.2799 18.932 25.2106 19.5026 25.1063 19.9764C24.7375 21.6499 24.2631 22.3821 23.5214 23.972C23.5214 23.972 25.4229 24.3376 26.0027 23.0507C27.3629 20.1557 27.0489 19.6096 27.373 18.6955C27.3345 18.1799 27.4062 17.5676 26.4987 16.9888Z" fill="#CECECE"/>
<path d="M23.1777 6.83026C23.1768 6.83466 23.1761 6.8392 23.1754 6.84368L22.7243 10.3737C22.7243 10.3737 24.5091 11.476 24.7334 9.66354C24.7334 9.66296 24.7335 9.66239 24.7336 9.66181L25.1028 6.67765C25.1034 6.67311 25.1041 6.66849 25.1052 6.66395C25.1192 6.59554 25.1328 6.53768 25.1445 6.48739C25.2058 6.22533 25.2186 6.17086 25.0237 5.92611C24.8188 5.66925 23.9006 4.99131 23.2165 4.55168C22.5708 4.11877 21.804 4.63935 21.804 4.63935C21.6125 4.78603 21.4415 4.91417 21.2561 4.97298C21.725 5.22659 22.9132 5.87676 23.0981 6.10852C23.2888 6.34792 23.2762 6.40117 23.2163 6.65752C23.2047 6.7068 23.1915 6.76344 23.1777 6.83026Z" fill="#CECECE"/>
</svg>
