<svg width="26" height="26" viewBox="0 0 26 26" fill="none" xmlns="http://www.w3.org/2000/svg">
<rect x="0.5" y="0.5" width="25" height="25" rx="3.5" fill="#FAFAFA" stroke="#E4E4E4"/>
<path d="M13.3563 8C15.1924 8 17 8.84559 17 10.8682C17 12.7334 14.8627 13.4507 14.4036 14.1246C14.059 14.6259 14.1741 15.3304 13.2273 15.3304C12.6106 15.3304 12.3093 14.8287 12.3093 14.3697C12.3093 12.6616 14.819 12.275 14.819 10.8685C14.819 10.0943 14.3038 9.63533 13.4426 9.63533C11.6066 9.63533 12.3235 11.5283 10.9329 11.5283C10.4309 11.5283 10 11.227 10 10.6536C9.99966 9.24672 11.6059 8 13.3563 8ZM13.2849 16.2616C13.9294 16.2616 14.4612 16.7917 14.4612 17.4383C14.4612 18.0848 13.9304 18.6149 13.2849 18.6149C12.6393 18.6149 12.1082 18.0855 12.1082 17.4383C12.1082 16.7921 12.6393 16.2616 13.2849 16.2616Z" fill="#A4A4A4"/>
</svg>
