<svg width="29" height="29" viewBox="0 0 29 29" fill="none" xmlns="http://www.w3.org/2000/svg">
<path d="M25.5476 0H3.45238C1.54874 0 0 1.54874 0 3.45238V25.5476C0 27.4513 1.54874 29 3.45238 29H25.5476C27.4513 29 29 27.4513 29 25.5476V3.45238C29 1.54874 27.4513 0 25.5476 0ZM24.8571 22.0952L15.1905 21.4048V24.8571L8.28571 26.2381V22.2927L4.14286 23.4762L4.83333 11.0476L4.14286 5.52381H8.28571V3.45238H20.0238L19.5633 5.52381H24.8571L24.1667 10.3571L24.8571 22.0952Z" fill="#605BCD"/>
<path d="M13.8095 12.4285V8.97611H17.3813L18.3024 4.83325H9.66663V24.5167L13.8095 23.7495V16.5713H17.2619V12.4285H13.8095Z" fill="#605BCD"/>
</svg>
