<svg width="25" height="22" viewBox="0 0 25 22" fill="none" xmlns="http://www.w3.org/2000/svg">
<path d="M21.3942 8.39644L20.3765 7.91019L20.2013 6.7794C20.1391 6.39493 19.8733 6.31012 19.6019 6.59282L18.8273 7.41265L17.6965 7.23737C17.3121 7.17518 17.1312 7.40699 17.3403 7.74623L17.9057 8.73568L17.3912 9.74208C17.216 10.087 17.3912 10.3075 17.7644 10.2396L18.8952 10.0361L19.6924 10.8333C19.9694 11.1103 20.2578 11.0199 20.2861 10.6298L20.4331 9.49897L21.4338 8.98445C21.7504 8.8431 21.7448 8.56605 21.3942 8.39644ZM7.25931 7.18649L6.12852 7.36176L5.33696 6.53062C5.06557 6.24227 4.77157 6.32708 4.73199 6.71721L4.55106 7.848L3.51073 8.34555C3.15453 8.51517 3.14888 8.80352 3.51073 8.97879L4.5341 9.50461L4.68676 10.6354C4.73764 11.0255 5.00338 11.116 5.28608 10.839L6.08894 10.0587L7.21973 10.2679C7.60986 10.3414 7.78513 10.1096 7.59855 9.75904L7.07838 8.73568L7.64378 7.72361C7.81905 7.3561 7.67205 7.12429 7.25931 7.18649V7.18649Z" fill="white"/>
<path d="M7.82458 3.66377H8.44652V4.70975C8.49898 5.32904 8.68174 5.93025 8.98283 6.47396C9.28391 7.01767 9.69652 7.49159 10.1936 7.86467V7.86467C10.5026 8.10051 10.7545 8.40289 10.9307 8.74938C11.1069 9.09586 11.2028 9.47757 11.2113 9.86618V9.9114C11.7258 9.87748 12.246 9.86052 12.7605 9.86052C13.0828 9.86052 13.405 9.86052 13.7217 9.86052C13.7302 9.47191 13.8261 9.09021 14.0023 8.74373C14.1785 8.39724 14.4304 8.09486 14.7394 7.85902V7.85902C15.2365 7.48594 15.6491 7.01201 15.9502 6.4683C16.2512 5.92459 16.434 5.32339 16.4865 4.7041V3.65811H17.1084C17.3333 3.65811 17.549 3.56876 17.7081 3.40972C17.8671 3.25067 17.9565 3.03494 17.9565 2.81002C17.9565 2.58509 17.8671 2.36937 17.7081 2.21033C17.549 2.05128 17.3333 1.96192 17.1084 1.96192H16.4865V0.333582C16.4865 0.289775 16.4778 0.246397 16.4611 0.205924C16.4443 0.165452 16.4197 0.12868 16.3888 0.0977039C16.3578 0.0667277 16.321 0.0421543 16.2805 0.0253901C16.2401 0.00862589 16.1967 0 16.1529 0H8.80272C8.75891 0 8.71553 0.00862589 8.67506 0.0253901C8.63459 0.0421543 8.59782 0.0667277 8.56684 0.0977039C8.53586 0.12868 8.51129 0.165452 8.49453 0.205924C8.47776 0.246397 8.46914 0.289775 8.46914 0.333582V1.96192H7.8472C7.62227 1.96192 7.40655 2.05128 7.2475 2.21033C7.08845 2.36937 6.9991 2.58509 6.9991 2.81002C6.9991 3.03494 7.08845 3.25067 7.2475 3.40972C7.40655 3.56876 7.62227 3.65811 7.8472 3.65811L7.82458 3.66377ZM10.8212 2.79871L11.7824 2.66302L12.2121 1.79231C12.3591 1.49265 12.5965 1.49265 12.7435 1.79231L13.1732 2.66302L14.1344 2.79871C14.4623 2.8496 14.5358 3.07576 14.2984 3.30757L13.6029 3.98604L13.7669 4.94157C13.8234 5.2695 13.6312 5.41085 13.3372 5.25254L12.4778 4.80588L11.624 5.25254C11.3244 5.41085 11.1322 5.25253 11.1887 4.94157L11.3527 3.98604L10.6572 3.30757C10.4198 3.07576 10.4989 2.8496 10.8212 2.79871ZM19.6697 18.1492C19.7783 18.1497 19.8841 18.1145 19.9708 18.0492C20.0576 17.9838 20.1206 17.8919 20.1502 17.7874C20.5969 16.1195 20.8796 15.0904 21.3319 13.3999C21.3657 13.2821 21.3542 13.156 21.2998 13.0462C21.2455 12.9364 21.1521 12.8508 21.0379 12.8062C18.4027 11.7835 15.5985 11.2656 12.7718 11.2797C9.76127 11.2942 6.77436 11.8121 3.93465 12.8119C3.81651 12.8555 3.71903 12.9419 3.66146 13.0539C3.60389 13.1659 3.59041 13.2954 3.62368 13.4169L4.79971 17.7874C4.82933 17.8919 4.89234 17.9838 4.97912 18.0492C5.0659 18.1145 5.17167 18.1497 5.28029 18.1492C5.33813 18.1509 5.39574 18.1413 5.44991 18.121C9.98778 16.4699 14.9622 16.4699 19.5 18.121C19.5548 18.139 19.612 18.1485 19.6697 18.1492V18.1492ZM24.7865 16.6453C24.8564 16.5765 24.9073 16.4908 24.9341 16.3965C24.9609 16.3021 24.9627 16.2025 24.9393 16.1072C24.9159 16.012 24.8682 15.9245 24.8007 15.8532C24.7333 15.782 24.6485 15.7296 24.5547 15.7011L22.3609 15.0226L22.0387 16.2043L21.5128 18.1549C21.4025 18.5592 21.1623 18.916 20.8292 19.1704C20.4962 19.4248 20.0887 19.5626 19.6697 19.5627C19.4481 19.5619 19.2283 19.5237 19.0194 19.4496L18.6406 19.3253L18.4654 19.8907C18.4426 19.9619 18.4343 20.037 18.4408 20.1115C18.4473 20.186 18.4685 20.2585 18.5032 20.3248C18.5379 20.391 18.5854 20.4498 18.643 20.4975C18.7005 20.5453 18.767 20.5812 18.8385 20.6031L22.6776 21.7847C22.7718 21.8145 22.8721 21.8191 22.9687 21.7981C23.0652 21.777 23.1545 21.731 23.2277 21.6646C23.301 21.5983 23.3555 21.5139 23.386 21.4199C23.4164 21.3259 23.4217 21.2256 23.4013 21.1289L22.932 18.8277C22.9135 18.7356 22.9183 18.6402 22.946 18.5504C22.9736 18.4606 23.0232 18.3791 23.0903 18.3132L24.7865 16.6453ZM6.31497 19.3196L5.9305 19.4496C5.72168 19.5237 5.50185 19.5619 5.28029 19.5627C4.8612 19.5626 4.45376 19.4248 4.12071 19.1704C3.78765 18.916 3.54745 18.5592 3.4371 18.1549L2.82647 15.8933L2.59466 15.0339L0.400917 15.7124C0.307092 15.7409 0.222302 15.7933 0.154871 15.8646C0.0874406 15.9358 0.0396862 16.0233 0.0163044 16.1185C-0.00707744 16.2138 -0.00528229 16.3134 0.0215067 16.4078C0.0482956 16.5021 0.0991605 16.5879 0.169106 16.6566L1.8653 18.3528C1.93237 18.4186 1.98197 18.5002 2.00961 18.59C2.03726 18.6798 2.04207 18.7751 2.02361 18.8673L1.55433 21.1685C1.53392 21.2651 1.5392 21.3655 1.56965 21.4595C1.60009 21.5535 1.65464 21.6378 1.72786 21.7042C1.80107 21.7705 1.89039 21.8166 1.98693 21.8376C2.08346 21.8587 2.18383 21.8541 2.27804 21.8243L6.11708 20.6426C6.18861 20.6207 6.25508 20.5849 6.31264 20.5371C6.3702 20.4893 6.41771 20.4306 6.45242 20.3644C6.48712 20.2981 6.50834 20.2256 6.51483 20.1511C6.52133 20.0766 6.51297 20.0015 6.49025 19.9302L6.31497 19.3196Z" fill="white"/>
</svg>
