<svg width="10" height="15" viewBox="0 0 10 15" fill="none" xmlns="http://www.w3.org/2000/svg">
<path d="M8.79175 3.84193C8.55937 3.28357 8.7498 2.4315 8.32699 2.0087C7.90419 1.58589 7.05212 1.77632 6.49376 1.54394C5.9354 1.31156 5.49001 0.575684 4.88001 0.575684C4.27 0.575684 3.79556 1.32124 3.26625 1.54394C2.73693 1.76664 1.8526 1.58912 1.43302 2.0087C1.01344 2.42828 1.20064 3.29971 0.968255 3.84193C0.735874 4.38415 0 4.84569 0 5.45569C0 6.06569 0.745557 6.54336 0.968255 7.06945C1.19095 7.59553 1.01344 8.47987 1.43302 8.89945C1.8526 9.31903 2.70789 9.13506 3.26625 9.36421C3.82461 9.59337 4.27 10.3325 4.88001 10.3325C5.49001 10.3325 5.96445 9.59014 6.49376 9.36421C7.02308 9.13829 7.90741 9.32226 8.32699 8.89945C8.74657 8.47665 8.55937 7.62781 8.79175 7.06945C9.02414 6.51109 9.76001 6.06246 9.76001 5.45569C9.76001 4.84891 9.01445 4.38092 8.79175 3.84193ZM4.87032 8.21522C4.32645 8.21522 3.7948 8.05394 3.34259 7.75178C2.89038 7.44963 2.53792 7.02016 2.3298 6.51769C2.12167 6.01522 2.06721 5.46232 2.17331 4.9289C2.27942 4.39549 2.54132 3.90551 2.92589 3.52094C3.31047 3.13637 3.80044 2.87447 4.33385 2.76836C4.86727 2.66226 5.42018 2.71672 5.92264 2.92485C6.42511 3.13297 6.85457 3.48543 7.15673 3.93764C7.45889 4.38985 7.62016 4.9215 7.62016 5.46537C7.62059 5.82661 7.54976 6.18438 7.41172 6.51819C7.27368 6.85201 7.07114 7.15532 6.81571 7.41075C6.56028 7.66618 6.25697 7.86872 5.92315 8.00676C5.58933 8.1448 5.23156 8.21564 4.87032 8.21522V8.21522Z" fill="#A2A2A2"/>
<path d="M3.92787 5.92048L3.79232 6.71767C3.74391 6.99524 3.90529 7.11143 4.1538 6.98233L4.87031 6.60471L5.58682 6.98233C5.83534 7.11143 5.99672 6.98233 5.9483 6.71767L5.81275 5.92048L6.3937 5.35566C6.59381 5.15878 6.53249 4.96836 6.25492 4.92963L5.45449 4.81344L5.09301 4.08725C4.97037 3.8355 4.77026 3.8355 4.64761 4.08725L4.28936 4.81344L3.48571 4.92963C3.20814 4.96836 3.16296 5.15878 3.34693 5.35566L3.92787 5.92048ZM8.08492 13.9602L7.52656 10.0323L7.34904 10.0485C7.16458 10.0551 6.98152 10.0833 6.80359 10.1324C6.65404 10.2239 6.51544 10.3322 6.39047 10.4551C6.02899 10.7585 5.53841 11.1749 4.87031 11.1749C4.20222 11.1749 3.71164 10.7585 3.35016 10.4551C3.22519 10.3322 3.08659 10.2239 2.93703 10.1324C2.76016 10.0835 2.57819 10.0553 2.3948 10.0485H2.26894L1.66539 14.0667C1.65617 14.1289 1.66423 14.1923 1.6887 14.2502C1.71316 14.3081 1.75308 14.3581 1.80408 14.3948C1.85509 14.4314 1.91521 14.4533 1.97785 14.4581C2.04049 14.4629 2.10324 14.4503 2.1592 14.4218L4.74122 13.0823C4.79126 13.0571 4.84654 13.0439 4.90259 13.0439C4.95865 13.0439 5.01392 13.0571 5.06397 13.0823L7.60402 14.3314C7.66087 14.3578 7.72388 14.3681 7.78618 14.3612C7.84848 14.3542 7.90768 14.3303 7.95731 14.292C8.00693 14.2537 8.04509 14.2025 8.06759 14.144C8.0901 14.0855 8.09609 14.0219 8.08492 13.9602V13.9602Z" fill="#A2A2A2"/>
</svg>
