<svg width="13" height="13" viewBox="0 0 13 13" fill="none" xmlns="http://www.w3.org/2000/svg">
<path d="M12.7741 0.717716C12.7567 0.557245 12.6832 0.40807 12.5666 0.296469C12.4499 0.184867 12.2977 0.117999 12.1366 0.107643L10.4743 0.00139466C10.3773 -0.00480487 10.28 0.00971221 10.189 0.0439859C10.098 0.0782596 10.0154 0.131501 9.94651 0.200178L3.75666 6.39003C3.72453 6.42189 3.69903 6.4598 3.68163 6.50157C3.66423 6.54333 3.65527 6.58813 3.65527 6.63338C3.65527 6.67863 3.66423 6.72342 3.68163 6.76518C3.69903 6.80695 3.72453 6.84486 3.75666 6.87672L4.63064 7.74728L9.5695 2.80842C9.60929 2.76852 9.65657 2.73687 9.70862 2.71527C9.76067 2.69367 9.81647 2.68255 9.87282 2.68255C9.92917 2.68255 9.98497 2.69367 10.037 2.71527C10.0891 2.73687 10.1363 2.76852 10.1761 2.80842C10.2551 2.88966 10.2992 2.99847 10.2992 3.11174C10.2992 3.22501 10.2551 3.33382 10.1761 3.41506L5.23386 8.35392L6.10784 9.2279C6.1397 9.26002 6.17761 9.28553 6.21937 9.30293C6.26114 9.32033 6.30594 9.32928 6.35118 9.32928C6.39643 9.32928 6.44123 9.32033 6.48299 9.30293C6.52476 9.28553 6.56266 9.26002 6.59453 9.2279L12.7638 3.05861C12.836 2.986 12.8911 2.89813 12.9249 2.80146C12.9587 2.70478 12.9704 2.60175 12.9592 2.49995L12.7741 0.717716Z" fill="#A2A2A2"/>
<path d="M8.43849 9.37883C8.39099 9.33075 8.33442 9.29257 8.27205 9.26652C8.20969 9.24046 8.14277 9.22705 8.07519 9.22705C8.0076 9.22705 7.94068 9.24046 7.87832 9.26652C7.81595 9.29257 7.75938 9.33075 7.71188 9.37883L6.99213 10.0986C6.91283 10.1783 6.81857 10.2415 6.71475 10.2847C6.61094 10.3278 6.49962 10.35 6.3872 10.35C6.27478 10.35 6.16346 10.3278 6.05965 10.2847C5.95583 10.2415 5.86157 10.1783 5.78227 10.0986L2.87927 7.19902C2.71978 7.03739 2.63036 6.81944 2.63036 6.59237C2.63036 6.3653 2.71978 6.14736 2.87927 5.98573L3.60588 5.25912C3.69669 5.16167 3.74613 5.03277 3.74378 4.89958C3.74143 4.76639 3.68747 4.63931 3.59328 4.54511C3.49909 4.45092 3.37201 4.39696 3.23882 4.39461C3.10563 4.39226 2.97673 4.44171 2.87927 4.53252L2.15267 5.25912C1.97753 5.43418 1.8386 5.64202 1.74381 5.87079C1.64902 6.09955 1.60023 6.34475 1.60023 6.59237C1.60023 6.83999 1.64902 7.0852 1.74381 7.31396C1.8386 7.54273 1.97753 7.75057 2.15267 7.92563L2.69419 8.46715L1.15187 10.5064L0.853689 10.2083C0.821827 10.1761 0.783922 10.1506 0.742157 10.1332C0.700391 10.1158 0.655591 10.1069 0.610346 10.1069C0.5651 10.1069 0.520303 10.1158 0.478537 10.1332C0.436771 10.1506 0.398864 10.1761 0.367002 10.2083L0.0996663 10.4756C0.035831 10.5398 0 10.6267 0 10.7172C0 10.8078 0.035831 10.8946 0.0996663 10.9589L2.03614 12.8988C2.068 12.9309 2.10591 12.9564 2.14767 12.9738C2.18944 12.9912 2.23424 13.0001 2.27948 13.0001C2.32473 13.0001 2.36952 12.9912 2.41129 12.9738C2.45306 12.9564 2.49096 12.9309 2.52283 12.8988L2.79016 12.6314C2.82229 12.5996 2.84778 12.5617 2.86518 12.5199C2.88258 12.4781 2.89154 12.4333 2.89154 12.3881C2.89154 12.3428 2.88258 12.298 2.86518 12.2563C2.84778 12.2145 2.82229 12.1766 2.79016 12.1447L2.57424 11.9288L4.54498 10.3179L5.05909 10.8321C5.23414 11.0072 5.44199 11.1461 5.67075 11.2409C5.89952 11.3357 6.14472 11.3845 6.39234 11.3845C6.63996 11.3845 6.88516 11.3357 7.11393 11.2409C7.34269 11.1461 7.55054 11.0072 7.72559 10.8321L8.45219 10.1054C8.49939 10.057 8.53651 9.99975 8.5614 9.93689C8.58628 9.87403 8.59844 9.80686 8.59716 9.73927C8.59589 9.67168 8.58121 9.60501 8.55397 9.54314C8.52673 9.48127 8.48748 9.42542 8.43849 9.37883Z" fill="#A2A2A2"/>
</svg>
