<svg width="23" height="21" viewBox="0 0 23 21" fill="none" xmlns="http://www.w3.org/2000/svg">
<path d="M23 8.15198C23 3.65362 17.8217 0 11.4966 0C5.1714 0 0.0343386 3.65362 0 8.15198V12.616C0.110016 14.1814 0.769134 15.6577 1.86116 16.7847V13.9895C1.86116 13.7619 1.95159 13.5435 2.11259 13.3825C2.27358 13.2215 2.49194 13.1311 2.71962 13.1311C2.9473 13.1311 3.16565 13.2215 3.32665 13.3825C3.48764 13.5435 3.57809 13.7619 3.57809 13.9895V18.2613C4.22727 18.696 4.91731 19.0663 5.6384 19.367V17.08C5.6384 16.8523 5.72884 16.634 5.88983 16.473C6.05083 16.312 6.26919 16.2216 6.49687 16.2216C6.72455 16.2216 6.9429 16.312 7.10389 16.473C7.26489 16.634 7.35533 16.8523 7.35533 17.08V19.9644C8.14292 20.1806 8.94681 20.3322 9.75904 20.4177V19.1403C9.75904 18.9127 9.84947 18.6943 10.0105 18.5333C10.1715 18.3723 10.3898 18.2819 10.6175 18.2819C10.8452 18.2819 11.0635 18.3723 11.2245 18.5333C11.3855 18.6943 11.476 18.9127 11.476 19.1403V20.5139C17.6569 20.5139 22.739 16.9976 22.9588 12.616V8.15198H23ZM11.4966 14.3329C6.29084 14.3329 2.05345 11.5858 2.05345 8.20006C2.05345 4.81427 6.29084 2.06032 11.4966 2.06032C16.7023 2.06032 20.9397 4.80741 20.9397 8.20006C20.9397 11.5927 16.7092 14.3329 11.4966 14.3329ZM11.4966 3.5094C7.71932 3.5094 4.62885 5.61093 4.62885 8.20006C4.62885 10.7892 7.69872 12.8838 11.4966 12.8838C15.2944 12.8838 18.3643 10.7892 18.3643 8.20006C18.3643 5.61093 15.2807 3.5094 11.4966 3.5094V3.5094ZM11.4966 9.27142C12.0238 9.27955 12.5426 9.13913 12.9937 8.86623C13.1821 8.75873 13.4042 8.72649 13.6153 8.77602C13.8265 8.82556 14.011 8.95317 14.1319 9.13322C14.2528 9.31328 14.3011 9.53243 14.2671 9.74662C14.233 9.96081 14.1191 10.1542 13.9483 10.2878C13.2164 10.7529 12.3636 10.9918 11.4966 10.9746C9.43625 10.9746 7.82233 9.74528 7.82233 8.18631C7.82233 6.62734 9.43625 5.39802 11.4966 5.39802C12.3632 5.38368 13.2152 5.62234 13.9483 6.08479C14.1378 6.21138 14.2692 6.40804 14.3136 6.6315C14.358 6.85496 14.3119 7.08692 14.1853 7.27635C14.0587 7.46578 13.862 7.59716 13.6386 7.6416C13.4151 7.68603 13.1832 7.63988 12.9937 7.51329C12.544 7.23722 12.0242 7.09653 11.4966 7.10807C10.3771 7.10807 9.53926 7.67125 9.53926 8.17946C9.53926 8.68767 10.3771 9.28515 11.4966 9.28515V9.27142Z" fill="white"/>
</svg>
