<svg width="11" height="13" viewBox="0 0 11 13" fill="none" xmlns="http://www.w3.org/2000/svg">
<path d="M5.69273 0C3.09666 0 0.984619 2.11205 0.984619 4.70809C0.984619 7.92986 5.19792 12.6596 5.3773 12.8594C5.5458 13.047 5.83997 13.0467 6.00816 12.8594C6.18755 12.6596 10.4008 7.92986 10.4008 4.70809C10.4008 2.11205 8.28878 0 5.69273 0ZM5.69273 7.07686C4.38659 7.07686 3.32399 6.01423 3.32399 4.70809C3.32399 3.40194 4.38661 2.33934 5.69273 2.33934C6.99885 2.33934 8.06145 3.40197 8.06145 4.70811C8.06145 6.01426 6.99885 7.07686 5.69273 7.07686Z" fill="#A2A2A2"/>
</svg>
