<svg width="22" height="17" viewBox="0 0 22 17" fill="none" xmlns="http://www.w3.org/2000/svg">
<path d="M21.0401 13.0768C21.0401 13.0768 20.2335 7.49419 20.1064 6.8098C19.6175 4.25312 18.239 2.53237 15.8974 2.41016H5.1427C2.80111 2.53237 1.403 3.78871 0.933702 6.8098C0.826155 7.49908 0 13.0768 0 13.0768C0 13.1551 0 13.2284 0 13.3066C0.00490101 13.9614 0.221067 14.5972 0.616335 15.1192C1.0116 15.6413 1.56485 16.0218 2.19378 16.2042C2.82271 16.3866 3.49371 16.361 4.10695 16.1314C4.72019 15.9017 5.2429 15.4802 5.59733 14.9296V14.9296L7.35229 12.1334C7.43536 11.9963 7.55229 11.883 7.69184 11.8042C7.8314 11.7254 7.98887 11.6839 8.14912 11.6836H12.9594C13.1196 11.6839 13.2771 11.7254 13.4167 11.8042C13.5562 11.883 13.6732 11.9963 13.7562 12.1334L15.4623 14.9345C15.8208 15.4773 16.3438 15.8909 16.9547 16.1144C17.5656 16.338 18.2321 16.3597 18.8563 16.1765C19.4804 15.9932 20.0293 15.6146 20.4224 15.0963C20.8155 14.578 21.032 13.9473 21.0401 13.2968C21.0401 13.2186 21.0401 13.1453 21.0401 13.0671V13.0768ZM14.9295 4.35089C15.1228 4.35089 15.3119 4.40823 15.4726 4.51566C15.6334 4.62309 15.7587 4.77578 15.8327 4.95444C15.9067 5.13309 15.9261 5.32967 15.8884 5.51932C15.8506 5.70898 15.7575 5.88319 15.6208 6.01992C15.4841 6.15666 15.3099 6.24977 15.1202 6.2875C14.9305 6.32522 14.734 6.30586 14.5553 6.23186C14.3767 6.15786 14.224 6.03255 14.1165 5.87177C14.0091 5.71098 13.9518 5.52195 13.9518 5.32858C13.9518 5.06928 14.0548 4.8206 14.2381 4.63725C14.4215 4.4539 14.6702 4.35089 14.9295 4.35089ZM7.59672 8.26168H7.10787V8.75053C7.10787 9.00983 7.00486 9.25851 6.82151 9.44187C6.63816 9.62522 6.38947 9.72823 6.13017 9.72823C5.87087 9.72823 5.62219 9.62522 5.43883 9.44187C5.25548 9.25851 5.15247 9.00983 5.15247 8.75053V8.26168H4.66362C4.40432 8.26168 4.15564 8.15867 3.97229 7.97532C3.78893 7.79197 3.68592 7.54328 3.68592 7.28398C3.68592 7.02468 3.78893 6.776 3.97229 6.59265C4.15564 6.40929 4.40432 6.30628 4.66362 6.30628H5.15247V5.81743C5.15247 5.55813 5.25548 5.30945 5.43883 5.1261C5.62219 4.94274 5.87087 4.83973 6.13017 4.83973C6.38947 4.83973 6.63816 4.94274 6.82151 5.1261C7.00486 5.30945 7.10787 5.55813 7.10787 5.81743V6.30628H7.59672C7.85602 6.30628 8.1047 6.40929 8.28806 6.59265C8.47141 6.776 8.57442 7.02468 8.57442 7.28398C8.57442 7.54328 8.47141 7.79197 8.28806 7.97532C8.1047 8.15867 7.85602 8.26168 7.59672 8.26168ZM12.9741 8.26168C12.7807 8.26168 12.5917 8.20434 12.4309 8.09691C12.2701 7.98948 12.1448 7.83678 12.0708 7.65813C11.9968 7.47948 11.9774 7.2829 12.0152 7.09324C12.0529 6.90359 12.146 6.72938 12.2827 6.59265C12.4195 6.45591 12.5937 6.36279 12.7833 6.32507C12.973 6.28734 13.1696 6.30671 13.3482 6.38071C13.5269 6.45471 13.6796 6.58002 13.787 6.7408C13.8944 6.90158 13.9518 7.09061 13.9518 7.28398C13.9518 7.54328 13.8488 7.79197 13.6654 7.97532C13.482 8.15867 13.2334 8.26168 12.9741 8.26168ZM14.9295 10.2171C14.7361 10.2171 14.5471 10.1597 14.3863 10.0523C14.2255 9.94488 14.1002 9.79218 14.0262 9.61353C13.9522 9.43488 13.9328 9.2383 13.9705 9.04864C14.0083 8.85899 14.1014 8.68478 14.2381 8.54804C14.3749 8.41131 14.5491 8.31819 14.7387 8.28047C14.9284 8.24274 15.125 8.26211 15.3036 8.3361C15.4823 8.4101 15.635 8.53542 15.7424 8.6962C15.8498 8.85698 15.9072 9.04601 15.9072 9.23938C15.9072 9.49868 15.8042 9.74736 15.6208 9.93072C15.4374 10.1141 15.1888 10.2171 14.9295 10.2171V10.2171ZM16.8849 8.26168C16.6915 8.26168 16.5025 8.20434 16.3417 8.09691C16.1809 7.98948 16.0556 7.83678 15.9816 7.65813C15.9076 7.47948 15.8882 7.2829 15.9259 7.09324C15.9637 6.90359 16.0568 6.72938 16.1935 6.59265C16.3303 6.45591 16.5045 6.36279 16.6941 6.32507C16.8838 6.28734 17.0804 6.30671 17.259 6.38071C17.4377 6.45471 17.5904 6.58002 17.6978 6.7408C17.8052 6.90158 17.8626 7.09061 17.8626 7.28398C17.8626 7.54328 17.7595 7.79197 17.5762 7.97532C17.3928 8.15867 17.1442 8.26168 16.8849 8.26168Z" fill="white"/>
<path d="M7.84107 0H5.39683C5.23476 0 5.07934 0.0643772 4.96474 0.178973C4.85015 0.29357 4.78577 0.448998 4.78577 0.611062C4.78577 0.773125 4.85015 0.92855 4.96474 1.04315C5.07934 1.15774 5.23476 1.22212 5.39683 1.22212H7.84107C8.00314 1.22212 8.15857 1.15774 8.27316 1.04315C8.38776 0.92855 8.45214 0.773125 8.45214 0.611062C8.45214 0.448998 8.38776 0.29357 8.27316 0.178973C8.15857 0.0643772 8.00314 0 7.84107 0ZM15.6627 0H13.2184C13.0564 0 12.9009 0.0643772 12.7863 0.178973C12.6717 0.29357 12.6074 0.448998 12.6074 0.611062C12.6074 0.773125 12.6717 0.92855 12.7863 1.04315C12.9009 1.15774 13.0564 1.22212 13.2184 1.22212H15.6627C15.8247 1.22212 15.9802 1.15774 16.0947 1.04315C16.2093 0.92855 16.2737 0.773125 16.2737 0.611062C16.2737 0.448998 16.2093 0.29357 16.0947 0.178973C15.9802 0.0643772 15.8247 0 15.6627 0Z" fill="white"/>
</svg>
