<svg width="22" height="22" viewBox="0 0 22 22" fill="none" xmlns="http://www.w3.org/2000/svg">
<path d="M20.7259 1.16449C20.6977 0.904129 20.5784 0.662094 20.3892 0.48102C20.2 0.299947 19.953 0.191453 19.6916 0.17465L16.9946 0.00226283C16.8371 -0.0077959 16.6793 0.015758 16.5317 0.0713671C16.384 0.126976 16.2499 0.21336 16.1382 0.324789L6.09516 10.3678C6.04303 10.4195 6.00167 10.481 5.97343 10.5488C5.9452 10.6166 5.93066 10.6892 5.93066 10.7626C5.93066 10.8361 5.9452 10.9087 5.97343 10.9765C6.00167 11.0443 6.04303 11.1058 6.09516 11.1575L7.51319 12.5699L15.5265 4.55666C15.5911 4.49193 15.6678 4.44056 15.7522 4.40552C15.8367 4.37048 15.9272 4.35244 16.0186 4.35244C16.1101 4.35244 16.2006 4.37048 16.285 4.40552C16.3695 4.44056 16.4462 4.49193 16.5108 4.55666C16.6388 4.68847 16.7105 4.86501 16.7105 5.04879C16.7105 5.23257 16.6388 5.40912 16.5108 5.54094L8.49192 13.5542L9.90995 14.9723C9.96164 15.0244 10.0231 15.0658 10.0909 15.094C10.1587 15.1222 10.2314 15.1368 10.3048 15.1368C10.3782 15.1368 10.4509 15.1222 10.5186 15.094C10.5864 15.0658 10.6479 15.0244 10.6996 14.9723L20.7093 4.9626C20.8264 4.84479 20.9158 4.70222 20.9706 4.54536C21.0255 4.3885 21.0445 4.22133 21.0262 4.05616L20.7259 1.16449Z" fill="white"/>
<path d="M13.6914 15.2169C13.6144 15.1389 13.5226 15.0769 13.4214 15.0347C13.3202 14.9924 13.2116 14.9706 13.102 14.9706C12.9923 14.9706 12.8837 14.9924 12.7826 15.0347C12.6814 15.0769 12.5896 15.1389 12.5125 15.2169L11.3447 16.3847C11.2161 16.514 11.0631 16.6166 10.8947 16.6866C10.7262 16.7566 10.5456 16.7927 10.3632 16.7927C10.1808 16.7927 10.0002 16.7566 9.83177 16.6866C9.66333 16.6166 9.51038 16.514 9.38172 16.3847L4.67162 11.6802C4.41284 11.4179 4.26775 11.0643 4.26775 10.6959C4.26775 10.3274 4.41284 9.97384 4.67162 9.71159L5.85053 8.53268C5.99788 8.37456 6.07809 8.16542 6.07427 7.94932C6.07046 7.73322 5.98292 7.52703 5.83009 7.3742C5.67726 7.22137 5.47108 7.13383 5.25498 7.13001C5.03888 7.1262 4.82974 7.20643 4.67162 7.35377L3.4927 8.53268C3.20854 8.81671 2.98312 9.15394 2.82933 9.52511C2.67553 9.89627 2.59638 10.2941 2.59638 10.6959C2.59638 11.0976 2.67553 11.4955 2.82933 11.8667C2.98312 12.2378 3.20854 12.5751 3.4927 12.8591L4.37133 13.7377L1.86891 17.0465L1.38511 16.5627C1.33341 16.5105 1.27191 16.4692 1.20415 16.4409C1.13638 16.4127 1.0637 16.3982 0.990285 16.3982C0.916874 16.3982 0.844191 16.4127 0.776426 16.4409C0.708661 16.4692 0.647156 16.5105 0.59546 16.5627L0.161708 16.9964C0.0581358 17.1006 0 17.2415 0 17.3884C0 17.5354 0.0581358 17.6763 0.161708 17.7805L3.30363 20.928C3.35533 20.9801 3.41683 21.0215 3.4846 21.0497C3.55236 21.0779 3.62504 21.0925 3.69846 21.0925C3.77187 21.0925 3.84455 21.0779 3.91231 21.0497C3.98008 21.0215 4.04158 20.9801 4.09328 20.928L4.52703 20.4942C4.57915 20.4425 4.62053 20.381 4.64876 20.3133C4.67699 20.2455 4.69152 20.1728 4.69152 20.0994C4.69152 20.026 4.67699 19.9533 4.64876 19.8855C4.62053 19.8178 4.57915 19.7563 4.52703 19.7046L4.17669 19.3542L7.37423 16.7406L8.20836 17.5747C8.49239 17.8589 8.82962 18.0843 9.20079 18.2381C9.57196 18.3919 9.96979 18.4711 10.3716 18.4711C10.7733 18.4711 11.1712 18.3919 11.5423 18.2381C11.9135 18.0843 12.2507 17.8589 12.5348 17.5747L13.7137 16.3958C13.7903 16.3173 13.8505 16.2243 13.8909 16.1224C13.9312 16.0204 13.951 15.9114 13.9489 15.8017C13.9468 15.692 13.923 15.5839 13.8788 15.4835C13.8346 15.3831 13.7709 15.2925 13.6914 15.2169Z" fill="white"/>
</svg>
