<svg width="18" height="21" viewBox="0 0 18 21" fill="none" xmlns="http://www.w3.org/2000/svg">
<path d="M11.1375 0.108986C10.7041 -0.170032 9.96667 0.108985 9.34387 0.691931C9.20141 0.831308 9.01004 0.909358 8.81074 0.909358C8.61145 0.909358 8.42008 0.831308 8.27762 0.691931C7.65482 0.0990197 6.9224 -0.160067 6.48394 0.108986C5.03405 0.985896 6.98218 4.04512 7.16654 4.2195H10.4549C10.6343 4.04512 12.5077 0.990879 11.1375 0.108986Z" fill="white"/>
<path d="M13.4244 3.56649C13.8015 3.68959 14.1443 3.89994 14.4248 4.18045C14.7053 4.46095 14.9156 4.80369 15.0387 5.18081C15.0613 5.23564 15.0996 5.28253 15.1488 5.31553C15.198 5.34854 15.256 5.36616 15.3153 5.36616C15.3745 5.36616 15.4325 5.34854 15.4817 5.31553C15.5309 5.28253 15.5693 5.23564 15.5918 5.18081C15.7149 4.80369 15.9252 4.46095 16.2057 4.18045C16.4862 3.89994 16.829 3.68959 17.2061 3.56649C17.2594 3.54323 17.3048 3.50492 17.3367 3.45624C17.3686 3.40757 17.3856 3.35064 17.3856 3.29245C17.3856 3.23427 17.3686 3.17735 17.3367 3.12867C17.3048 3.07999 17.2594 3.04168 17.2061 3.01842C16.829 2.89532 16.4862 2.68497 16.2057 2.40446C15.9252 2.12396 15.7149 1.78122 15.5918 1.40411C15.5693 1.34928 15.5309 1.30238 15.4817 1.26938C15.4325 1.23637 15.3745 1.21875 15.3153 1.21875C15.256 1.21875 15.198 1.23637 15.1488 1.26938C15.0996 1.30238 15.0613 1.34928 15.0387 1.40411C14.9156 1.78122 14.7053 2.12396 14.4248 2.40446C14.1443 2.68497 13.8015 2.89532 13.4244 3.01842C13.3711 3.04168 13.3257 3.07999 13.2938 3.12867C13.2619 3.17735 13.2449 3.23427 13.2449 3.29245C13.2449 3.35064 13.2619 3.40757 13.2938 3.45624C13.3257 3.50492 13.3711 3.54323 13.4244 3.56649V3.56649ZM17.0317 17.2832H16.9819C16.9819 17.0291 16.9819 16.76 16.9819 16.4411C16.9819 8.90767 12.9959 6.47624 10.3403 5.47975H7.4953C5.00408 6.47624 1.01812 8.40943 1.01812 16.4411C1.01812 16.755 1.01812 17.034 1.01812 17.2832H0.968292C0.694094 17.322 0.443808 17.4604 0.265267 17.6721C0.0867269 17.8838 -0.00754253 18.1539 0.000472086 18.4307C0.0084867 18.7075 0.118223 18.9717 0.308712 19.1727C0.499202 19.3737 0.757084 19.4974 1.03307 19.5203L3.22036 19.6349C5.1015 20.1943 7.05774 20.4598 9.01993 20.4221C10.9685 20.4573 12.911 20.1935 14.7796 19.6399L16.9669 19.5253C17.2429 19.5024 17.5008 19.3786 17.6913 19.1776C17.8818 18.9766 17.9915 18.7125 17.9995 18.4357C18.0075 18.1589 17.9133 17.8888 17.7347 17.6771C17.5562 17.4654 17.3059 17.3269 17.0317 17.2882V17.2832ZM12.4479 12.4651L9.3986 15.9977C9.35182 16.0524 9.29375 16.0963 9.22838 16.1264C9.16301 16.1565 9.0919 16.1721 9.01993 16.1721C8.94796 16.1721 8.87685 16.1565 8.81148 16.1264C8.74611 16.0963 8.68804 16.0524 8.64126 15.9977L5.59201 12.4502C5.51348 12.3596 5.47025 12.2437 5.47025 12.1238C5.47025 12.004 5.51348 11.8881 5.59201 11.7975L6.86253 10.3028C6.90931 10.2481 6.96738 10.2042 7.03275 10.1741C7.09812 10.144 7.16923 10.1284 7.2412 10.1284H10.8086C10.8806 10.1284 10.9517 10.144 11.0171 10.1741C11.0824 10.2042 11.1405 10.2481 11.1873 10.3028L12.4578 11.7975C12.535 11.8893 12.5764 12.0058 12.5746 12.1257C12.5728 12.2456 12.5278 12.3608 12.4479 12.4502V12.4651ZM1.17257 5.14094C1.40523 5.21717 1.61668 5.34709 1.7898 5.52021C1.96291 5.69333 2.09284 5.90477 2.16906 6.13743C2.1825 6.1721 2.20611 6.2019 2.23678 6.22291C2.26746 6.24392 2.30378 6.25517 2.34096 6.25517C2.37814 6.25517 2.41446 6.24392 2.44513 6.22291C2.47581 6.2019 2.49942 6.1721 2.51285 6.13743C2.58978 5.90515 2.71995 5.69407 2.89297 5.52105C3.06599 5.34803 3.27706 5.21787 3.50934 5.14094C3.54248 5.12672 3.57072 5.10309 3.59056 5.07298C3.6104 5.04287 3.62098 5.0076 3.62098 4.97154C3.62098 4.93548 3.6104 4.90021 3.59056 4.8701C3.57072 4.83999 3.54248 4.81636 3.50934 4.80213C3.27706 4.72521 3.06599 4.59505 2.89297 4.42203C2.71995 4.24901 2.58978 4.03793 2.51285 3.80564C2.4977 3.77281 2.47345 3.74502 2.44299 3.72553C2.41252 3.70604 2.37712 3.69568 2.34096 3.69568C2.3048 3.69568 2.26939 3.70604 2.23893 3.72553C2.20847 3.74502 2.18422 3.77281 2.16906 3.80564C2.09284 4.0383 1.96291 4.24975 1.7898 4.42287C1.61668 4.59599 1.40523 4.72591 1.17257 4.80213C1.1374 4.81438 1.10691 4.83727 1.08533 4.86762C1.06375 4.89798 1.05216 4.9343 1.05216 4.97154C1.05216 5.00879 1.06375 5.04511 1.08533 5.07546C1.10691 5.10582 1.1374 5.1287 1.17257 5.14094V5.14094Z" fill="white"/>
</svg>
