<svg width="26" height="26" viewBox="0 0 26 26" fill="none" xmlns="http://www.w3.org/2000/svg">
<rect x="0.5" y="0.5" width="25" height="25" rx="3.5" fill="#FAFAFA" stroke="#E4E4E4"/>
<path d="M19.5 8.66675H6V17.6669H19.5V8.66675Z" fill="#F0F0F0"/>
<path d="M19.5 9.79163H6V10.9165H19.5V9.79163Z" fill="#D80027"/>
<path d="M19.5 12.0417H6V13.1667H19.5V12.0417Z" fill="#D80027"/>
<path d="M19.5 14.2915H6V15.4164H19.5V14.2915Z" fill="#D80027"/>
<path d="M19.5 16.5416H6V17.6665H19.5V16.5416Z" fill="#D80027"/>
<path d="M12.75 8.66675H6V13.513H12.75V8.66675Z" fill="#2E52B2"/>
<path d="M8.63185 10.652L8.52314 10.9864H8.17151L8.45604 11.193L8.34733 11.5274L8.63185 11.3208L8.9162 11.5274L8.80751 11.193L9.09204 10.9864H8.74038L8.63185 10.652Z" fill="#F0F0F0"/>
<path d="M8.74038 12.1934L8.63185 11.859L8.52314 12.1934H8.17151L8.45604 12.4L8.34733 12.7345L8.63185 12.5278L8.9162 12.7345L8.80751 12.4L9.09204 12.1934H8.74038Z" fill="#F0F0F0"/>
<path d="M7.25445 12.1934L7.14589 11.859L7.03718 12.1934H6.68555L6.97008 12.4L6.86136 12.7345L7.14589 12.5278L7.43026 12.7345L7.32158 12.4L7.60605 12.1934H7.25445Z" fill="#F0F0F0"/>
<path d="M7.14589 10.652L7.03718 10.9864H6.68555L6.97008 11.193L6.86136 11.5274L7.14589 11.3208L7.43026 11.5274L7.32158 11.193L7.60605 10.9864H7.25445L7.14589 10.652Z" fill="#F0F0F0"/>
<path d="M8.63185 9.44507L8.52314 9.77954H8.17151L8.45604 9.98615L8.34733 10.3206L8.63185 10.114L8.9162 10.3206L8.80751 9.98615L9.09204 9.77954H8.74038L8.63185 9.44507Z" fill="#F0F0F0"/>
<path d="M7.14589 9.44507L7.03718 9.77954H6.68555L6.97008 9.98615L6.86136 10.3206L7.14589 10.114L7.43026 10.3206L7.32158 9.98615L7.60605 9.77954H7.25445L7.14589 9.44507Z" fill="#F0F0F0"/>
<path d="M10.118 10.652L10.0093 10.9864H9.65771L9.94222 11.193L9.83356 11.5274L10.118 11.3208L10.4024 11.5274L10.2937 11.193L10.5782 10.9864H10.2266L10.118 10.652Z" fill="#F0F0F0"/>
<path d="M10.2266 12.1934L10.118 11.859L10.0093 12.1934H9.65771L9.94222 12.4L9.83356 12.7345L10.118 12.5278L10.4024 12.7345L10.2937 12.4L10.5782 12.1934H10.2266Z" fill="#F0F0F0"/>
<path d="M11.7127 12.1934L11.6041 11.859L11.4954 12.1934H11.1438L11.4283 12.4L11.3196 12.7345L11.6041 12.5278L11.8885 12.7345L11.7798 12.4L12.0643 12.1934H11.7127Z" fill="#F0F0F0"/>
<path d="M11.6041 10.652L11.4954 10.9864H11.1438L11.4283 11.193L11.3196 11.5274L11.6041 11.3208L11.8885 11.5274L11.7798 11.193L12.0643 10.9864H11.7127L11.6041 10.652Z" fill="#F0F0F0"/>
<path d="M10.118 9.44507L10.0093 9.77954H9.65771L9.94222 9.98615L9.83356 10.3206L10.118 10.114L10.4024 10.3206L10.2937 9.98615L10.5782 9.77954H10.2266L10.118 9.44507Z" fill="#F0F0F0"/>
<path d="M11.6041 9.44507L11.4954 9.77954H11.1438L11.4283 9.98615L11.3196 10.3206L11.6041 10.114L11.8885 10.3206L11.7798 9.98615L12.0643 9.77954H11.7127L11.6041 9.44507Z" fill="#F0F0F0"/>
</svg>
