<svg width="26" height="26" viewBox="0 0 26 26" fill="none" xmlns="http://www.w3.org/2000/svg">
<rect x="0.5" y="0.5" width="25" height="25" rx="3.5" fill="#FAFAFA" stroke="#E4E4E4"/>
<path d="M13.0141 19.2174C13.6889 19.2174 14.241 18.6653 14.241 17.9905H11.7872C11.7872 18.6653 12.3393 19.2174 13.0141 19.2174ZM17.0014 15.5368V12.1629C17.0014 10.2613 15.7132 8.72769 13.9343 8.29828V7.86888C13.9343 7.37813 13.5049 6.94873 13.0141 6.94873C12.5234 6.94873 12.094 7.37813 12.094 7.86888V8.29828C10.315 8.72769 9.02679 10.2613 9.02679 12.1629V15.5368L7.79993 16.7637V17.3771H18.2283V16.7637L17.0014 15.5368ZM15.7746 16.1502H10.2537V12.1629C10.2537 10.6293 11.4805 9.40247 13.0141 9.40247C14.5477 9.40247 15.7746 10.6293 15.7746 12.1629V16.1502Z" fill="#A4A4A4"/>
</svg>
