<svg width="18" height="18" viewBox="0 0 18 18" fill="none" xmlns="http://www.w3.org/2000/svg">
<path d="M12.9369 11.812H9.562C9.25151 11.812 8.99951 11.56 8.99951 11.2495C8.99951 10.939 9.25151 10.687 9.562 10.687H12.9369C13.2474 10.687 13.4994 10.939 13.4994 11.2495C13.4994 11.56 13.2474 11.812 12.9369 11.812Z" fill="#5C5C5C"/>
<path d="M5.43744 14.9998H2.06251C0.924756 14.9998 0 14.075 0 12.9373V2.06251C0 0.924756 0.924756 0 2.06251 0H13.1247C14.2625 0 15.1872 0.924756 15.1872 2.06251V5.43744C15.1872 5.74794 14.9352 5.99993 14.6247 5.99993C14.3142 5.99993 14.0622 5.74794 14.0622 5.43744V2.06251C14.0622 1.54575 13.6415 1.12498 13.1247 1.12498H2.06251C1.54575 1.12498 1.12498 1.54575 1.12498 2.06251V12.9373C1.12498 13.454 1.54575 13.8748 2.06251 13.8748H5.43744C5.74794 13.8748 5.99993 14.1268 5.99993 14.4373C5.99993 14.7478 5.74794 14.9998 5.43744 14.9998V14.9998Z" fill="#5C5C5C"/>
<path d="M11.2494 15.7493C8.76766 15.7493 6.74951 13.7312 6.74951 11.2494C6.74951 8.76766 8.76766 6.74951 11.2494 6.74951C13.7312 6.74951 15.7493 8.76766 15.7493 11.2494C15.7493 13.7312 13.7312 15.7493 11.2494 15.7493ZM11.2494 7.87449C9.38865 7.87449 7.87449 9.38865 7.87449 11.2494C7.87449 13.1102 9.38865 14.6244 11.2494 14.6244C13.1102 14.6244 14.6244 13.1102 14.6244 11.2494C14.6244 9.38865 13.1102 7.87449 11.2494 7.87449Z" fill="#5C5C5C"/>
<path d="M17.437 17.9993C17.2929 17.9993 17.149 17.9445 17.0394 17.8343L13.6345 14.4293C13.4148 14.2096 13.4148 13.8534 13.6345 13.6336C13.8542 13.4138 14.2105 13.4138 14.4303 13.6336L17.8352 17.0385C18.0549 17.2582 18.0549 17.6145 17.8352 17.8343C17.7249 17.9445 17.581 17.9993 17.437 17.9993Z" fill="#5C5C5C"/>
</svg>
