<svg width="27" height="38" viewBox="0 0 27 38" fill="none" xmlns="http://www.w3.org/2000/svg">
<path d="M23.9743 8.39149L21.5202 5.89994L18.8853 3.29468H8.11338L5.54673 5.89994L3.09265 8.39149H10.9457V30.8962L13.5337 33.4553L16.1212 30.8962V8.39149H16.1217H23.9743Z" fill="#CECECE"/>
<path d="M21.4312 10.8267H18.9608V20.8679L16.3797 23.4182L18.1973 25.1828L20.0329 26.9658L23.9831 23.0597L23.984 10.8267H21.4312ZM8.10872 20.8679V10.8267H3.08496V23.0597L7.0366 26.9658L8.87228 25.1828L10.6887 23.4182L8.10872 20.8679Z" fill="#CECECE"/>
<path d="M7.72684 1.92265L1.36972 8.27691V23.6795L13.5003 35.584L25.6305 23.6795V8.27737L19.2736 1.92265H7.72684ZM0.202979 7.51044L6.9643 0.755614L7.1643 0.554199H19.8353L20.0353 0.755614L26.797 7.51044L27 7.71371V24.2483L26.7945 24.4494L13.9788 37.0265L13.5004 37.4958L13.0213 37.0265L0.206034 24.4495L0 24.2483V7.71383L0.202979 7.51044Z" fill="#CECECE"/>
</svg>
